<svg viewBox="0 0 104 104" fill="none" xmlns="http://www.w3.org/2000/svg">
<circle cx="52" cy="52" r="52" fill="#00364C"/>
<path d="M57.1638 54.5135C56.5862 54.178 55.7583 53.8611 54.6608 53.5816V59.7321C55.1614 59.6575 55.6042 59.5643 55.9893 59.4338C57.5296 58.8933 58.2997 57.9055 58.2997 56.4704C58.2997 55.6317 57.9147 54.9794 57.1445 54.5135H57.1638Z" fill="#00C112"/>
<path d="M48.7692 42.5107C47.922 43.0698 47.4985 43.834 47.4985 44.8404C47.4985 45.7537 47.922 46.4433 48.75 46.8906C49.135 47.1142 49.8667 47.3565 50.9256 47.6361V41.8211C50.0977 41.9515 49.3468 42.1379 48.7692 42.5107Z" fill="#00C112"/>
<path d="M77.8999 37.4785C79.3054 37.4785 79.7097 35.6147 78.4197 35.0742L54.4298 25.1216C53.3901 24.6929 52.2156 24.6929 51.1759 25.1216L27.1859 35.0742C25.8959 35.6147 26.281 37.4785 27.7058 37.4785H32.7695V69.1255H28.2064C27.7058 69.1255 27.3015 69.5169 27.3015 70.0015V73.5241C27.3015 74.0086 27.7058 74.4 28.2064 74.4H77.3993C77.8999 74.4 78.3042 74.0086 78.3042 73.5241V70.0015C78.3042 69.5169 77.8999 69.1255 77.3993 69.1255H72.8362V37.4785H77.8999ZM60.8605 61.894C59.3202 63.1801 57.2408 63.8883 54.6608 64.1119V66.218H50.9256V64.0933C48.4804 63.8324 46.4588 63.1241 44.9185 61.9313C42.9546 60.403 41.9534 58.3156 41.9534 55.669H47.2289C47.4022 56.8432 47.7295 57.7192 48.2108 58.2969C48.8077 59.0052 49.7319 59.4525 50.9256 59.6948V52.7801L50.7523 52.7429C47.9991 52.1464 46.1122 51.4941 45.0533 50.7859C43.2819 49.6117 42.377 47.7665 42.377 45.2504C42.377 42.958 43.2434 41.0569 44.957 39.5473C46.3818 38.2985 48.3841 37.5903 50.9064 37.3666V35.2605H54.6416V37.4225C56.5284 37.7021 58.2035 38.3544 59.6475 39.4168C61.6114 40.8519 62.651 42.9207 62.7473 45.6418H57.4333C57.3371 44.0949 56.6439 43.0139 55.3539 42.3616C55.1421 42.2497 54.8726 42.1938 54.6416 42.1193V48.5493L56.7209 49.0339C58.7233 49.4999 60.2251 50.1149 61.2455 50.8977C62.8243 52.1092 63.6137 53.8425 63.6137 56.1163C63.6137 58.3901 62.6895 60.3844 60.8412 61.9313L60.8605 61.894Z" fill="#00C112"/>
</svg>
