<svg viewBox="0 0 104 104" fill="none" xmlns="http://www.w3.org/2000/svg">
<circle cx="52" cy="52" r="52" fill="#00364C"/>
<path d="M58.7498 31.7667H36.2782C33.0182 31.7667 30.3938 34.4194 30.3938 37.6683V71.1245C30.3938 74.3941 33.0387 77.0262 36.2782 77.0262H58.7498C62.0098 77.0262 64.6342 74.3735 64.6342 71.1245V37.6683C64.6342 34.3988 61.9893 31.7667 58.7498 31.7667ZM41.3015 68.6981C41.3015 69.8496 40.3789 70.775 39.2307 70.775H37.1599C36.0117 70.775 35.089 69.8496 35.089 68.6981V66.6212C35.089 65.4697 36.0117 64.5443 37.1599 64.5443H39.2307C40.3789 64.5443 41.3015 65.4697 41.3015 66.6212V68.6981ZM41.3015 59.3419C41.3015 60.4934 40.3789 61.4188 39.2307 61.4188H37.1599C36.0117 61.4188 35.089 60.4934 35.089 59.3419V57.265C35.089 56.1135 36.0117 55.1881 37.1599 55.1881H39.2307C40.3789 55.1881 41.3015 56.1135 41.3015 57.265V59.3419ZM50.6305 68.6981C50.6305 69.8496 49.7079 70.775 48.5597 70.775H46.4888C45.3407 70.775 44.418 69.8496 44.418 68.6981V66.6212C44.418 65.4697 45.3407 64.5443 46.4888 64.5443H48.5597C49.7079 64.5443 50.6305 65.4697 50.6305 66.6212V68.6981ZM50.6305 59.3419C50.6305 60.4934 49.7079 61.4188 48.5597 61.4188H46.4888C45.3407 61.4188 44.418 60.4934 44.418 59.3419V57.265C44.418 56.1135 45.3407 55.1881 46.4888 55.1881H48.5597C49.7079 55.1881 50.6305 56.1135 50.6305 57.265V59.3419ZM59.9595 68.6981C59.9595 69.8496 59.0368 70.775 57.8887 70.775H55.8178C54.6696 70.775 53.747 69.8496 53.747 68.6981V66.6212C53.747 65.4697 54.6696 64.5443 55.8178 64.5443H57.8887C59.0368 64.5443 59.9595 65.4697 59.9595 66.6212V68.6981ZM59.9595 59.3419C59.9595 60.4934 59.0368 61.4188 57.8887 61.4188H55.8178C54.6696 61.4188 53.747 60.4934 53.747 59.3419V57.265C53.747 56.1135 54.6696 55.1881 55.8178 55.1881H57.8887C59.0368 55.1881 59.9595 56.1135 59.9595 57.265V59.3419ZM61.5177 47.3741C61.5177 48.464 60.267 48.9369 59.1804 48.9369H35.4786C34.3919 48.9369 33.5103 48.0527 33.5103 46.9629V36.8458C33.5103 35.756 34.3919 34.8718 35.4786 34.8718H59.5699C60.6566 34.8718 61.5382 35.756 61.5382 36.8458V47.3741H61.5177Z" fill="#00C112"/>
<path d="M58.2547 54.8281C49.2743 54.8281 41.9751 47.5076 41.9751 38.5009C41.9751 29.4943 49.2743 22.1738 58.2547 22.1738C67.2351 22.1738 74.5342 29.4943 74.5342 38.5009C74.5342 47.5076 67.2351 54.8281 58.2547 54.8281ZM58.2547 27.4997C52.2062 27.4997 47.2854 32.4348 47.2854 38.5009C47.2854 44.5671 52.2062 49.5022 58.2547 49.5022C64.3031 49.5022 69.2239 44.5671 69.2239 38.5009C69.2239 32.4348 64.3031 27.4997 58.2547 27.4997Z" fill="#00C112"/>
<path d="M86.0158 66.0555L85.4212 66.6518C83.8424 68.1118 81.5256 68.3174 80.0698 66.6518L66.9888 51.7435L71.1509 47.5692L86.0158 60.6885C87.5945 62.0251 87.5945 64.5749 86.0158 66.0555Z" fill="#00C112"/>
</svg>
