<svg viewBox="0 0 87 87" fill="none" xmlns="http://www.w3.org/2000/svg">
<g clip-path="url(#clip0_1322_697)">
<path d="M43.4924 86.9854C67.5127 86.9854 86.9849 67.5132 86.9849 43.4929C86.9849 19.4727 67.5127 0.000488281 43.4924 0.000488281C19.4722 0.000488281 0 19.4727 0 43.4929C0 67.5132 19.4722 86.9854 43.4924 86.9854Z" fill="#00C112"/>
<g clip-path="url(#clip1_1322_697)">
<path d="M51.252 43.846C51.252 45.4939 50.7511 47.0216 49.8951 48.2844L47.1724 44.8532C47.2604 44.5329 47.3059 44.1941 47.3059 43.846C47.3059 41.7146 45.597 39.9836 43.4996 39.9836C41.4021 39.9836 39.6902 41.7146 39.6902 43.846C39.6902 44.1972 39.7357 44.536 39.8237 44.8563L37.101 48.2844C36.245 47.0216 35.7441 45.4939 35.7441 43.846C35.7441 39.5093 39.2227 35.9795 43.4996 35.9795C47.7764 35.9795 51.252 39.5093 51.252 43.846Z" fill="white"/>
<path d="M59.1296 43.8459C59.1296 48.0102 57.539 51.8079 54.9407 54.6385L52.4335 51.4784C54.1485 49.4147 55.1835 46.7504 55.1835 43.8459C55.1835 37.31 49.9414 31.9907 43.5003 31.9907C37.0592 31.9907 31.8171 37.31 31.8171 43.8459C31.8171 46.7504 32.8522 49.4147 34.5641 51.4784L32.0569 54.6354C29.4586 51.8048 27.8711 48.0071 27.8711 43.8459C27.8711 35.1016 34.8828 27.9866 43.5003 27.9866C52.1178 27.9866 59.1296 35.1016 59.1296 43.8459Z" fill="white"/>
<path d="M67 43.846C67 54.768 59.7242 64.0021 49.8318 66.8111V62.6191C57.5174 59.9456 63.054 52.538 63.054 43.846C63.054 32.9055 54.2817 24.0041 43.5 24.0041C32.7183 24.0041 23.946 32.9055 23.946 43.846C23.946 52.538 29.4826 59.9456 37.1682 62.6191V66.8111C27.2758 64.0021 20 54.768 20 43.846C20 30.6971 30.5419 20 43.5 20C56.4581 20 67 30.6971 67 43.846Z" fill="white"/>
<path d="M54.7337 58.304L43.4997 44.1541L32.2627 58.304H39.5962V68H47.4002V58.304H54.7337Z" fill="white"/>
</g>
</g>
<defs>
<clipPath id="clip0_1322_697">
<rect width="87" height="87" fill="white" transform="translate(0 0.000488281)"/>
</clipPath>
<clipPath id="clip1_1322_697">
<rect width="47" height="48" fill="white" transform="translate(20 20)"/>
</clipPath>
</defs>
</svg>
