<svg viewBox="0 0 106 106" fill="none" xmlns="http://www.w3.org/2000/svg">
<circle cx="53" cy="53" r="53" fill="#00364C"/>
<g clip-path="url(#clip0_1488_143)">
<path fill-rule="evenodd" clip-rule="evenodd" d="M57.4918 30.9163C56.3811 31.2362 54.9848 31.5071 53.4338 31.5071C53.3901 31.5071 53.3465 31.5054 53.3028 31.5054C53.2591 31.5054 53.2171 31.5071 53.1734 31.5071C51.6225 31.5071 50.2245 31.2362 49.1138 30.9163C50.2396 29.7669 51.7031 29.0746 53.3028 29.0746C54.9024 29.0746 56.366 29.7669 57.4918 30.9163Z" fill="#00C112"/>
<path fill-rule="evenodd" clip-rule="evenodd" d="M59.7535 36.7614C59.7535 41.0068 56.865 44.4481 53.3028 44.4481C49.7405 44.4481 46.8538 41.0068 46.8538 36.7614C46.8538 34.422 47.7309 32.3264 49.1138 30.9163C50.2396 29.7669 51.7031 29.0746 53.3028 29.0746C54.9024 29.0746 56.366 29.7669 57.4918 30.9163C58.8763 32.3264 59.7535 34.422 59.7535 36.7614Z" fill="#00C112"/>
<path d="M65.9586 23.905C65.1874 24.8512 64.3119 25.7094 63.3491 26.4593C62.5963 27.0467 61.7864 27.5698 60.9412 28.015L59.5247 28.7581L59.4928 28.775C59.4928 28.775 58.8476 29.1305 57.8075 29.4877C56.5036 28.3975 54.9308 27.8051 53.3026 27.8051C51.6744 27.8051 50.1016 28.3975 48.7977 29.486C47.7576 29.1305 47.1207 28.7784 47.1157 28.775L45.6673 28.015C44.817 27.5681 44.0054 27.045 43.256 26.4593C42.2915 25.7077 41.4178 24.8512 40.6482 23.9033C44.6339 22.1225 48.885 21.2135 53.2992 21.2C57.7201 21.2135 61.9713 22.1225 65.9586 23.905Z" fill="#00C112"/>
<path d="M36.4644 38.3949C36.1854 39.524 35.72 40.8782 34.9437 42.2307C34.9218 42.2696 34.9 42.3068 34.8782 42.3441C34.8563 42.3813 34.8345 42.4203 34.8126 42.4575C34.038 43.81 33.1071 44.8934 32.277 45.7008C31.8536 44.1435 31.9897 42.5218 32.7879 41.1287C33.5877 39.7356 34.9134 38.8045 36.4644 38.3949Z" fill="#00C112"/>
<path d="M46.0035 48.8154C44.2223 51.9233 39.8199 52.7223 36.172 50.5996C34.159 49.4299 32.7963 47.6136 32.277 45.7008C31.8536 44.1434 31.9897 42.5218 32.7879 41.1287C33.5877 39.7355 34.9134 38.8045 36.4644 38.3949C38.3681 37.8921 40.608 38.1748 42.621 39.3445C46.2706 41.4672 47.7846 45.7075 46.0035 48.8154Z" fill="#00C112"/>
<path fill-rule="evenodd" clip-rule="evenodd" d="M36.5701 67.7878C35.0208 67.3782 33.6934 66.4489 32.8936 65.0541C32.0954 63.6592 31.9593 62.0376 32.3828 60.4819C33.2128 61.2911 34.1437 62.3744 34.9183 63.7252C34.9402 63.7625 34.9603 63.7997 34.9822 63.8387C35.004 63.8759 35.0259 63.9131 35.0477 63.9521C35.824 65.3046 36.2895 66.6588 36.5701 67.7878Z" fill="#00C112"/>
<path fill-rule="evenodd" clip-rule="evenodd" d="M42.725 66.8382C40.7137 68.0079 38.4739 68.2906 36.5701 67.7879C35.0208 67.3782 33.6934 66.4489 32.8936 65.0541C32.0954 63.6592 31.9593 62.0376 32.3828 60.4819C32.9003 58.5691 34.263 56.7528 36.276 55.5831C39.9256 53.4604 44.328 54.2594 46.1092 57.3673C47.8886 60.4752 46.3747 64.7155 42.725 66.8382Z" fill="#00C112"/>
<path fill-rule="evenodd" clip-rule="evenodd" d="M57.7017 75.0836C56.5742 76.2313 55.1124 76.9253 53.5127 76.9253C51.9131 76.9253 50.4512 76.2329 49.3237 75.0836C50.4344 74.7636 51.8324 74.4928 53.3817 74.4928C53.4254 74.4928 53.469 74.4945 53.5127 74.4945C53.5564 74.4945 53.5984 74.4928 53.6421 74.4928C55.193 74.4928 56.5911 74.7636 57.7017 75.0836Z" fill="#00C112"/>
<path fill-rule="evenodd" clip-rule="evenodd" d="M59.9617 69.2385C59.9617 71.5779 59.0846 73.6735 57.7017 75.0836C56.5742 76.2313 55.1124 76.9253 53.5127 76.9253C51.9131 76.9253 50.4512 76.233 49.3237 75.0836C47.9391 73.6752 47.062 71.5796 47.062 69.2385C47.062 64.9931 49.9505 61.5518 53.5127 61.5518C57.075 61.5518 59.9617 64.9931 59.9617 69.2385Z" fill="#00C112"/>
<path fill-rule="evenodd" clip-rule="evenodd" d="M74.0276 64.8712C73.2278 66.2643 71.902 67.1953 70.3511 67.605C70.63 66.4759 71.0954 65.1217 71.8717 63.7692C71.8936 63.7303 71.9154 63.693 71.9373 63.6558C71.9591 63.6186 71.981 63.5796 72.0028 63.5424C72.7791 62.1899 73.7083 61.1065 74.5384 60.2991C74.9618 61.8564 74.8257 63.4781 74.0276 64.8712Z" fill="#00C112"/>
<path fill-rule="evenodd" clip-rule="evenodd" d="M74.0276 64.8712C73.2277 66.2643 71.902 67.1953 70.3511 67.605C68.4473 68.1077 66.2074 67.825 64.1944 66.6554C60.5448 64.5326 59.0308 60.2923 60.812 57.1844C62.5931 54.0765 66.9955 53.2776 70.6434 55.4003C72.6564 56.57 74.0192 58.3863 74.5384 60.2991C74.9618 61.8564 74.8257 63.4781 74.0276 64.8712Z" fill="#00C112"/>
<path d="M84.8001 56.4159C84.338 60.7815 82.9954 64.9457 80.7992 68.8051C78.5745 72.6561 75.6676 75.9113 72.1457 78.4978C71.7155 77.3518 71.4164 76.1601 71.2518 74.9464C71.124 73.9866 71.0787 73.0167 71.1207 72.0637L71.1896 70.4556V70.4217C71.1896 70.4217 71.2081 69.682 71.4215 68.5935C73.0094 68.0011 74.3049 66.9245 75.1198 65.506C75.9314 64.0891 76.2087 62.4201 75.9247 60.7375C76.7514 60.0062 77.3714 59.6253 77.3765 59.6237L78.7577 58.7383C79.5592 58.2238 80.4145 57.7786 81.3 57.4129C82.4258 56.9491 83.5986 56.6156 84.8001 56.4159Z" fill="#00C112"/>
<path fill-rule="evenodd" clip-rule="evenodd" d="M74.4324 45.5179C73.6024 44.7088 72.6715 43.6255 71.8969 42.2746C71.875 42.2374 71.8549 42.2002 71.833 42.1612C71.8112 42.124 71.7893 42.0867 71.7675 42.0478C70.9912 40.6953 70.5257 39.3411 70.2451 38.212C71.7944 38.6217 73.1218 39.551 73.9216 40.9458C74.7198 42.3407 74.8559 43.9623 74.4324 45.5179Z" fill="#00C112"/>
<path fill-rule="evenodd" clip-rule="evenodd" d="M74.4326 45.518C73.915 47.4308 72.5523 49.2472 70.5393 50.4168C66.8897 52.5396 62.4873 51.7406 60.7062 48.6327C58.9267 45.5248 60.4407 41.2845 64.0903 39.1618C66.1016 37.9921 68.3415 37.7094 70.2453 38.2121C71.7945 38.6218 73.1219 39.5511 73.9218 40.9459C74.7199 42.3407 74.856 43.9624 74.4326 45.518Z" fill="#00C112"/>
<path d="M84.6958 49.4011C83.4944 49.2031 82.3215 48.8679 81.1941 48.4041C80.3119 48.0402 79.4566 47.5933 78.6534 47.0787L77.3058 46.2154L77.2756 46.1951C77.2672 46.1917 76.6455 45.8108 75.8188 45.0795C76.1027 43.3986 75.8255 41.7296 75.0122 40.3111C74.2006 38.8942 72.9051 37.8176 71.3155 37.2235C71.1021 36.1367 71.0853 35.4055 71.0853 35.3987L71.0148 33.7534C70.9744 32.7986 71.0198 31.8287 71.1475 30.8723C71.3122 29.6586 71.6113 28.4669 72.0414 27.3192C75.5634 29.9057 78.4703 33.1592 80.69 37.0051C82.8878 40.868 84.2321 45.0322 84.6958 49.4011Z" fill="#00C112"/>
<path d="M35.6947 33.9345L35.6259 35.5443V35.5782C35.6259 35.5866 35.6074 36.3179 35.394 37.4064C33.8061 37.9988 32.5106 39.0754 31.6956 40.4939C30.884 41.9108 30.6068 43.5798 30.8908 45.2624C30.064 45.9937 29.444 46.3745 29.439 46.3762L28.0578 47.2615C27.2563 47.7761 26.401 48.2213 25.5155 48.587C24.3897 49.0508 23.2168 49.3843 22.0154 49.584C22.4775 45.2184 23.82 41.0542 26.0162 37.1948C28.2409 33.3438 31.1478 30.0886 34.6698 27.5021C35.0999 28.6481 35.399 29.8398 35.5637 31.0535C35.6914 32.0133 35.7368 32.9832 35.6947 33.9345Z" fill="#00C112"/>
<path d="M35.6679 75.1276C35.5033 76.3413 35.2042 77.533 34.774 78.6807C31.2504 76.0942 28.3452 72.8407 26.1255 68.9948C23.9276 65.1319 22.5834 60.9677 22.1196 56.5988C23.321 56.7968 24.4939 57.132 25.6214 57.5958C26.5035 57.9597 27.3588 58.4066 28.162 58.9212L29.5096 59.7845L29.5399 59.8048C29.5399 59.8048 30.17 60.1891 30.9967 60.9203C30.7127 62.6012 30.99 64.2703 31.8032 65.6888C32.6148 67.1057 33.9103 68.1822 35.4999 68.7764C35.7133 69.8631 35.7301 70.5944 35.7301 70.6012L35.8007 72.2465C35.841 73.2012 35.7956 74.1695 35.6679 75.1276Z" fill="#00C112"/>
<path d="M66.1671 82.0966C62.1798 83.8774 57.9303 84.7864 53.5161 84.7999C49.0952 84.7864 44.8441 83.8774 40.8567 82.0949C41.6279 81.1486 42.5034 80.2904 43.4662 79.5405C44.219 78.9531 45.0289 78.4301 45.8741 77.9849L47.2906 77.2418L47.3225 77.2249C47.3309 77.2215 47.9677 76.8677 49.0079 76.5122C50.3134 77.6023 51.8862 78.1948 53.5127 78.1948C55.1393 78.1948 56.7104 77.6023 58.016 76.5122C59.0578 76.8694 59.6946 77.2215 59.6996 77.2249L61.1481 77.9849C61.9983 78.4318 62.8082 78.9548 63.5593 79.5405C64.5238 80.2921 65.3976 81.1486 66.1671 82.0966Z" fill="#00C112"/>
</g>
<defs>
<clipPath id="clip0_1488_143">
<rect width="62.7846" height="63.6" fill="white" transform="translate(22.0154 21.2)"/>
</clipPath>
</defs>
</svg>
