<svg viewBox="0 0 104 104" fill="none" xmlns="http://www.w3.org/2000/svg">
<circle cx="52" cy="52" r="52" fill="#00364C"/>
<path d="M26.6201 74.0624L27.5327 74.9749C29.9595 77.1941 33.5063 77.5052 35.7256 74.9749L55.7619 52.2028L49.3735 45.815L26.6201 65.8495C24.1934 67.9027 24.1934 71.8018 26.6201 74.0417V74.0624Z" fill="#00C112"/>
<path d="M56.6742 31.2246L45.733 42.1648L59.4022 55.8327L70.3433 44.8925L56.6742 31.2246Z" fill="#00C112"/>
<path d="M71.6707 46.6861L61.217 57.1389C59.6614 58.6943 59.6614 61.2453 61.217 62.8008C63.457 65.0407 67.1075 65.0407 69.3476 62.8008L77.3124 54.8368C79.5524 52.5969 80.0917 49.2371 77.3124 46.7068C75.7567 45.1306 72.8115 45.5869 71.6499 46.7068L71.6707 46.6861Z" fill="#00C112"/>
<path d="M55.119 29.6589L44.1882 40.5887C42.6326 42.1442 40.1851 41.7294 38.6295 40.1739C36.3894 37.9133 36.3894 34.2838 38.6295 32.044L46.5942 24.0799C48.8343 21.8401 52.4848 21.8401 54.7249 24.0799C56.2805 25.6561 56.6746 28.1242 55.119 29.6796V29.6589Z" fill="#00C112"/>
<path d="M72.1685 71.3248H59.4125C56.8613 71.3248 53.9367 74.2491 53.9367 76.8H77.6235C77.6235 74.2491 74.699 71.3248 72.1478 71.3248H72.1685Z" fill="#00C112"/>
</svg>
