<svg viewBox="0 0 87 87" fill="none" xmlns="http://www.w3.org/2000/svg">
<g clip-path="url(#clip0_1323_717)">
<path d="M43.4925 86.9854C67.5127 86.9854 86.9849 67.5132 86.9849 43.4929C86.9849 19.4727 67.5127 0.000488281 43.4925 0.000488281C19.4722 0.000488281 0 19.4727 0 43.4929C0 67.5132 19.4722 86.9854 43.4925 86.9854Z" fill="#00C112"/>
<path d="M70.7505 48.3255H60.2549L49.8047 38.0262C49.4271 37.6638 48.8382 37.6336 48.4304 37.9809C44.051 42.0583 43.9453 42.451 42.5559 42.451C40.638 42.451 39.2638 40.1857 41.2572 38.2376C41.2572 38.2376 45.093 34.5076 45.6215 34.0092C46.739 32.9521 48.521 32.0007 50.3785 32.0007H70.7354V48.3104L70.7505 48.3255ZM16.249 32.0007H44.942C43.9604 32.7407 39.8678 36.7879 39.8678 36.7879C36.5304 40.0196 38.8711 44.4595 42.5559 44.4595C43.764 44.4595 44.9269 44.0064 45.6668 43.2967L49.0496 40.1102L53.716 44.6256C53.716 44.6256 57.8991 48.6577 57.9293 48.6728C58.8656 49.6544 59.5452 50.6209 58.5787 51.7988C58.2011 52.2519 57.0836 52.6445 56.253 51.8894C55.4677 51.1797 54.6371 50.5152 54.6371 50.5152C53.867 49.8356 52.8401 50.9984 53.6102 51.678C53.6102 51.678 54.8033 52.72 55.1959 53.0825C56.0567 53.8828 55.6943 55.0306 55.211 55.5138C54.7882 55.9366 53.7462 56.2387 52.976 55.5289C52.538 55.1212 51.2091 53.9432 51.2091 53.9432C50.454 53.2637 49.412 54.4114 50.1671 55.091L51.6017 56.4501C52.5229 57.2958 52.4474 58.2925 51.8132 58.9419C51.1487 59.6365 50.1973 59.6365 49.1855 58.7455C48.7929 58.3982 47.8415 57.3713 47.8415 57.3713C47.1317 56.6313 46.0142 57.7186 46.7239 58.4435C47.2676 59.0023 49.3516 60.7993 47.9925 62.0981C46.9505 63.0948 45.7876 62.6115 44.8514 61.6752L43.2355 60.2406L44.2624 59.2439C46.3615 57.1448 44.9873 53.4298 41.8461 53.4298C41.8461 53.4298 41.8461 53.4147 41.8461 53.3996C41.8461 51.5723 40.4115 50.0168 38.4181 50.0168C38.4332 48.1896 37.0287 46.5888 35.0051 46.5888C35.0051 46.5888 35.0051 46.5737 35.0051 46.5586C35.0051 43.4024 31.1845 42.1187 29.1608 44.1272C25.174 48.0536 25.3704 47.8724 24.9626 48.2953H16.249V31.9856V32.0007ZM26.3671 51.9498C25.8234 51.3911 25.8234 50.5001 26.3671 49.9564L30.5804 45.577C31.124 45.0333 32.0301 45.0182 32.5738 45.577C33.1325 46.1357 33.1174 47.0418 32.5738 47.5704L28.3605 51.9498C27.8319 52.4784 26.8956 52.4784 26.3671 51.9498ZM29.7951 55.3779C29.2364 54.8191 29.2364 53.9281 29.7951 53.3694L34.0084 48.9899C34.5521 48.4312 35.4582 48.4312 36.0018 48.9899C36.5606 49.5487 36.5606 50.4397 36.0018 50.9833L31.7885 55.3628C31.26 55.8913 30.3237 55.8913 29.7951 55.3628V55.3779ZM33.2081 58.7908C32.6493 58.2472 32.6493 57.3411 33.2081 56.7974L37.4214 52.418C37.965 51.8743 38.856 51.8592 39.4148 52.418C39.9736 52.9767 39.9584 53.8677 39.4148 54.4114L35.2015 58.7908C34.6729 59.3194 33.7366 59.3194 33.2081 58.7908ZM38.6295 62.2189C38.101 62.7474 37.1647 62.7474 36.6361 62.2189C36.0774 61.6601 36.0925 60.7691 36.6361 60.2255L40.8494 55.846C41.4082 55.2873 42.2992 55.3024 42.8428 55.846C43.4016 56.4048 43.4016 57.2958 42.8428 57.8394L38.6295 62.2189Z" fill="white"/>
</g>
<defs>
<clipPath id="clip0_1323_717">
<rect width="87" height="87" fill="white" transform="translate(0 0.000488281)"/>
</clipPath>
</defs>
</svg>
