<svg viewBox="0 0 39 39" fill="none" xmlns="http://www.w3.org/2000/svg">
<rect width="39" height="39" rx="7" fill="white"/>
<g clip-path="url(#clip0_1047_3710)">
<path d="M14.7171 14.7168H10.302V28.6979H14.7171V14.7168Z" fill="#005FC6"/>
<path d="M22.0755 15.8206V14.7168H17.6604V28.6979H22.0755V18.764C23.871 16.9685 26.4906 17.3511 26.4906 20.2357C26.4906 21.3026 26.4906 21.8251 26.4906 22.0753V28.6979H30.9057V19.1319C30.8027 11.5968 23.6061 14.106 22.0755 15.8206Z" fill="#005FC6"/>
<path d="M12.5095 11.7735C13.7287 11.7735 14.7171 10.7851 14.7171 9.56595C14.7171 8.34675 13.7287 7.3584 12.5095 7.3584C11.2904 7.3584 10.302 8.34675 10.302 9.56595C10.302 10.7851 11.2904 11.7735 12.5095 11.7735Z" fill="#005FC6"/>
</g>
<defs>
<clipPath id="clip0_1047_3710">
<rect width="20.6038" height="21.3396" fill="white" transform="translate(10.302 7.3584)"/>
</clipPath>
</defs>
</svg>
