<svg viewBox="0 0 103 103" fill="none" xmlns="http://www.w3.org/2000/svg">
<g clip-path="url(#clip0_1323_702)">
<path d="M96.436 33.2637C94.8001 29.392 92.7075 25.7863 90.1923 22.4736L87.3295 22.085L82.8035 26.611C85.2233 29.6238 87.2136 32.9433 88.7268 36.5218C90.908 41.6817 92.0191 47.1619 92.0191 52.8058C92.0191 58.4496 90.9148 63.923 88.7268 69.0897C86.6206 74.0724 83.6078 78.5438 79.7703 82.3814C75.9328 86.2189 71.4613 89.2317 66.4787 91.3379C61.3188 93.5191 55.8385 94.6301 50.1947 94.6301C44.5509 94.6301 39.0774 93.5259 33.9107 91.3379C28.9281 89.2317 24.4566 86.2189 20.6191 82.3814C16.7815 78.5438 13.7688 74.0724 11.6626 69.0897C9.48137 63.9299 8.37033 58.4496 8.37033 52.8058C8.37033 47.1619 9.48137 41.6885 11.6626 36.5218C13.7688 31.5391 16.7815 27.0677 20.6191 23.2302C24.4566 19.3926 28.9281 16.3799 33.9107 14.2736C39.0706 12.0925 44.5509 10.9814 50.1947 10.9814C55.8385 10.9814 61.312 12.0856 66.4787 14.2736C70.064 15.7868 73.3835 17.7772 76.3895 20.1969L80.9154 15.671L80.5269 12.8082C77.2142 10.2862 73.6016 8.20039 69.7368 6.5645C63.534 3.94025 56.9632 2.61108 50.1947 2.61108C43.4262 2.61108 36.8553 3.94025 30.6526 6.5645C24.6747 9.09332 19.3036 12.7127 14.7026 17.3137C10.1016 21.9146 6.48223 27.2858 3.95341 33.2637C1.32916 39.4664 0 46.0441 0 52.8058C0 59.5675 1.32916 66.1451 3.95341 72.3479C6.48223 78.3257 10.1016 83.6901 14.7026 88.2979C19.3036 92.8988 24.6747 96.5182 30.6526 99.0471C36.8553 101.671 43.4262 103 50.1947 103C56.9632 103 63.534 101.671 69.7368 99.0471C75.7146 96.5182 81.079 92.8988 85.6868 88.2979C90.2877 83.6969 93.9071 78.3257 96.436 72.3479C99.0602 66.1451 100.389 59.5743 100.389 52.8058C100.389 46.0373 99.0602 39.4596 96.436 33.2637Z" fill="#005FC6"/>
<path d="M81.2425 39.6915C80.1382 37.0809 78.7204 34.6406 77.0164 32.3981L71.0249 38.3896C73.9491 42.5952 75.5236 47.5847 75.5236 52.8127C75.5236 59.5812 72.8858 65.9408 68.1076 70.7257C63.3226 75.5107 56.9631 78.1486 50.1945 78.1486C43.426 78.1486 37.0665 75.5107 32.2815 70.7257C27.4965 65.9408 24.8654 59.5812 24.8654 52.8127C24.8654 46.0442 27.5033 39.6847 32.2815 34.8997C37.0665 30.1147 43.426 27.4836 50.1945 27.4836C55.4226 27.4836 60.4121 29.0582 64.6177 31.9823L70.6091 25.9909C68.3734 24.28 65.9332 22.869 63.3158 21.7648C59.1579 20.0062 54.741 19.1133 50.1945 19.1133C45.6481 19.1133 41.2312 20.0062 37.0733 21.7648C33.0585 23.462 29.4528 25.8886 26.365 28.9832C23.2704 32.0777 20.8439 35.6835 19.1466 39.6915C17.388 43.8494 16.4951 48.2663 16.4951 52.8127C16.4951 57.3591 17.388 61.776 19.1466 65.9339C20.8439 69.9487 23.2704 73.5545 26.365 76.6422C29.4596 79.7368 33.0654 82.1634 37.0733 83.8606C41.2312 85.6192 45.6481 86.5121 50.1945 86.5121C54.741 86.5121 59.1579 85.6192 63.3158 83.8606C67.3305 82.1634 70.9363 79.7368 74.0241 76.6422C77.1186 73.5477 79.5452 69.9419 81.2425 65.9339C83.001 61.776 83.894 57.3591 83.894 52.8127C83.894 48.2663 83.001 43.8494 81.2425 39.6915Z" fill="#005FC6"/>
<path d="M65.1424 44.265L58.7692 50.6382C58.9464 51.3402 59.035 52.0628 59.035 52.8057C59.035 55.1641 58.1148 57.3862 56.4448 59.0562C54.7749 60.7262 52.5528 61.6464 50.1944 61.6464C47.836 61.6464 45.6139 60.7262 43.9439 59.0562C42.2739 57.3862 41.3537 55.1641 41.3537 52.8057C41.3537 50.4473 42.2739 48.2252 43.9439 46.5552C45.6139 44.8853 47.836 43.9651 50.1944 43.9651C50.9305 43.9651 51.6599 44.0537 52.3619 44.2309L58.7351 37.8577C56.1654 36.3854 53.2412 35.6016 50.1944 35.6016C45.6002 35.6016 41.2719 37.3942 38.0274 40.6456C34.7761 43.8969 32.9834 48.2184 32.9834 52.8125C32.9834 57.4067 34.7761 61.735 38.0274 64.9795C41.2787 68.2308 45.6002 70.0235 50.1944 70.0235C54.7885 70.0235 59.1168 68.2308 62.3613 64.9795C65.6127 61.7282 67.4053 57.4067 67.4053 52.8125C67.4053 49.7657 66.6215 46.8415 65.1492 44.2718L65.1424 44.265Z" fill="#005FC6"/>
<path d="M102.339 9.90445L99.4423 7.00755L101.753 4.69685C102.707 3.74258 102.707 2.1953 101.753 1.24103C100.799 0.286755 99.2515 0.286755 98.2972 1.24103L95.9865 3.55173L93.0896 0.654831C92.2103 -0.224462 90.7789 -0.224462 89.8928 0.654831L82.8448 7.70281C82.3472 8.20039 82.1086 8.90246 82.2041 9.60454L83.1243 16.4139L48.4638 51.0745C47.5095 52.0287 47.5095 53.576 48.4638 54.5303C48.9409 55.0074 49.568 55.246 50.1883 55.246C50.8085 55.246 51.4356 55.0074 51.9128 54.5303L86.5733 19.8698L93.3827 20.79C94.0848 20.8854 94.7868 20.6468 95.2844 20.1492L102.332 13.1013C103.212 12.222 103.212 10.7906 102.332 9.90445H102.339Z" fill="#005FC6"/>
</g>
<defs>
<clipPath id="clip0_1323_702">
<rect width="103" height="103" fill="white" transform="translate(0 0.000488281)"/>
</clipPath>
</defs>
</svg>
