<svg viewBox="0 0 38 38" fill="none" xmlns="http://www.w3.org/2000/svg">
<rect width="38" height="38" rx="8" fill="white"/>
<path d="M13.7507 8.00284H9.2792C8.57422 8.00853 8.00569 8.57692 8 9.28172C8 21.2748 17.7219 30.9972 29.718 31H29.7208C30.4258 30.9943 30.9943 30.4259 31 29.7211V25.2621C30.9943 24.5573 30.4258 23.9889 29.7208 23.9832C28.1715 23.9832 26.6308 23.7388 25.1583 23.2557C25.0304 23.2102 24.8968 23.1874 24.7632 23.1903C24.4249 23.1903 24.098 23.3239 23.8564 23.5597L21.045 26.3704C17.4234 24.5175 14.4756 21.5732 12.625 17.9526L15.4364 15.1419C15.7804 14.8008 15.9026 14.2978 15.7548 13.8374C15.2687 12.3653 15.0242 10.8249 15.0271 9.27604C15.0214 8.57123 14.4528 8.00284 13.7479 8L13.7507 8.00284Z" fill="#005FC6"/>
</svg>
