<svg viewBox="0 0 38 38" fill="none" xmlns="http://www.w3.org/2000/svg">
<rect width="38" height="38" rx="8" fill="white"/>
<path d="M18.999 19.5205C17.3442 19.5147 16.0059 18.1174 16.0003 16.3897C16.0059 14.6621 17.3442 13.2648 18.999 13.259C20.6538 13.2648 21.9921 14.6621 21.9977 16.3897C21.9921 18.1174 20.6538 19.5147 18.999 19.5205ZM27.9924 16.6996C28.194 11.5576 24.3665 7.21959 19.4414 7.00911C19.293 7.00327 19.1474 7.00035 18.999 7.00035C14.0711 6.9565 10.042 11.0929 10 16.2377C10 16.3927 10 16.5447 10.0084 16.6996C10.0084 20.3595 12.9315 25.212 18.999 31C25.0693 25.212 27.9896 20.3624 27.9896 16.7025L27.9924 16.6996Z" fill="#005FC6"/>
</svg>
