<svg viewBox="0 0 139 78" fill="none" xmlns="http://www.w3.org/2000/svg">
<g clip-path="url(#clip0_1323_708)">
<path d="M82.6468 38.6778C82.6468 45.9622 76.7663 51.8598 69.503 51.8598C67.3757 51.8598 65.3598 51.3519 63.5819 50.4477C64.7368 50.0464 65.7903 49.3047 66.5551 48.2329C68.5305 45.4847 67.9176 41.6495 65.1724 39.6836C62.4423 37.7025 58.6182 38.3273 56.6479 41.0755C56.6276 41.106 56.6074 41.1263 56.5972 41.1517C56.4402 40.3542 56.3643 39.5211 56.3643 38.6727C56.3643 31.3985 62.2448 25.4907 69.4979 25.4907C76.7511 25.4907 82.6417 31.3985 82.6417 38.6727L82.6468 38.6778Z" fill="#005FC6"/>
<path d="M69.3556 0.00061074C38.312 0.0514085 10.6163 15.814 0 39.0032C10.6467 62.2685 38.4386 78.0057 69.5025 78.0057H69.6494C100.693 77.9549 128.389 62.2025 139.005 39.0032C128.338 15.7073 100.475 -0.050187 69.3556 0.00061074ZM97.2286 38.678C97.2286 54.0342 84.8142 66.4848 69.5025 66.4848C54.1909 66.4848 41.7765 54.0342 41.7765 38.678C41.7765 23.3219 54.1909 10.8713 69.5025 10.8713C84.8142 10.8713 97.2286 23.3219 97.2286 38.678Z" fill="#005FC6"/>
<path d="M82.6468 38.6778C82.6468 45.9622 76.7663 51.8598 69.503 51.8598C67.3757 51.8598 65.3598 51.3519 63.5819 50.4477C64.7368 50.0464 65.7903 49.3047 66.5551 48.2329C68.5305 45.4847 67.9176 41.6495 65.1724 39.6836C62.4423 37.7025 58.6182 38.3273 56.6479 41.0755C56.6276 41.106 56.6074 41.1263 56.5972 41.1517C56.4402 40.3542 56.3643 39.5211 56.3643 38.6727C56.3643 31.3985 62.2448 25.4907 69.4979 25.4907C76.7511 25.4907 82.6417 31.3985 82.6417 38.6727L82.6468 38.6778Z" fill="#005FC6"/>
</g>
<defs>
<clipPath id="clip0_1323_708">
<rect width="139" height="78" fill="white" transform="translate(0 0.000488281)"/>
</clipPath>
</defs>
</svg>
