<svg width="300" height="98" viewBox="0 0 300 98" fill="none" xmlns="http://www.w3.org/2000/svg">
<path d="M115.634 77.3851H122.263L123.316 79.9076H126.035L120.438 66.8536H117.64L112.043 79.9076H114.581L115.634 77.3851ZM117.912 71.8762C117.991 71.6952 118.082 71.4576 118.195 71.1522C118.308 70.8468 118.433 70.53 118.558 70.202C118.682 69.8739 118.796 69.5798 118.898 69.331H119.022C119.022 69.331 119.079 69.4554 119.158 69.659C119.237 69.8626 119.328 70.1115 119.43 70.3943C119.532 70.6771 119.634 70.9599 119.736 71.2314C119.838 71.5029 119.917 71.7065 119.974 71.8535L121.277 75.0435H116.598L117.9 71.8762H117.912Z" fill="white"/>
<path d="M137.501 79.1611C138.487 78.6633 139.235 77.9281 139.768 76.9552C140.289 75.9824 140.561 74.7946 140.561 73.392C140.561 71.9893 140.3 70.7789 139.768 69.8061C139.246 68.8332 138.487 68.1093 137.501 67.6002C136.516 67.1025 135.349 66.8536 133.978 66.8536H128.018V79.9076H133.978C135.349 79.9076 136.516 79.6588 137.501 79.1611ZM130.488 69.2744H133.842C134.442 69.2744 134.986 69.3536 135.496 69.5233C136.006 69.6816 136.436 69.9305 136.822 70.2585C137.196 70.5866 137.49 70.9825 137.694 71.4802C137.898 71.9667 138 72.5322 138 73.177V73.6182C138 74.263 137.898 74.8286 137.694 75.315C137.49 75.8014 137.196 76.2086 136.822 76.5254C136.448 76.8534 136.006 77.091 135.496 77.2607C134.998 77.4303 134.442 77.5095 133.842 77.5095H130.488V69.2744Z" fill="white"/>
<path d="M149.421 79.919L154.757 66.865H152.14L149.205 74.2517C149.081 74.5797 148.945 74.9304 148.809 75.2924C148.673 75.6544 148.548 75.9937 148.435 76.3218C148.322 76.6385 148.231 76.91 148.152 77.1249H148.027C147.948 76.8987 147.857 76.6159 147.733 76.2878C147.608 75.9598 147.483 75.6091 147.359 75.2471C147.223 74.8851 147.098 74.5458 146.962 74.229L144.05 66.8536H141.286L146.622 79.9076H149.421V79.919Z" fill="white"/>
<path d="M159.108 66.865H156.638V79.919H159.108V66.865Z" fill="white"/>
<path d="M172.239 73.177C171.809 72.8829 171.31 72.6454 170.778 72.4644C170.245 72.2834 169.667 72.1363 169.09 72.0232C168.512 71.9101 167.945 71.8083 167.401 71.7178C166.858 71.6273 166.37 71.5368 165.94 71.4237C165.509 71.3219 165.158 71.1748 164.909 70.9938C164.648 70.8128 164.524 70.5866 164.524 70.2925C164.524 70.0549 164.637 69.8287 164.864 69.6364C165.09 69.4441 165.453 69.2857 165.94 69.1726C166.427 69.0595 167.062 69.0029 167.843 69.0029C168.41 69.0029 168.908 69.0708 169.362 69.1952C169.803 69.3196 170.166 69.4893 170.415 69.7043C170.676 69.9192 170.812 70.168 170.812 70.4508V70.6997H173.225V70.3943C173.225 69.8287 173.112 69.3083 172.897 68.8446C172.67 68.3808 172.33 67.9848 171.877 67.6568C171.424 67.3287 170.846 67.0686 170.155 66.8989C169.464 66.7179 168.648 66.6274 167.719 66.6274C166.79 66.6274 165.974 66.7066 165.271 66.8763C164.558 67.0459 163.957 67.2835 163.47 67.6115C162.983 67.9396 162.609 68.3355 162.36 68.7993C162.11 69.2631 161.986 69.8061 161.986 70.4169C161.986 71.0843 162.11 71.6499 162.371 72.1137C162.62 72.5775 162.971 72.9508 163.402 73.2449C163.833 73.539 164.331 73.7766 164.864 73.9576C165.407 74.1385 165.974 74.2856 166.552 74.3874C167.13 74.5005 167.696 74.591 168.24 74.6815C168.784 74.772 169.271 74.8738 169.701 75.0096C170.132 75.134 170.483 75.2924 170.733 75.496C170.993 75.6883 171.118 75.9598 171.118 76.2878C171.118 76.5141 171.05 76.7177 170.914 76.8873C170.778 77.057 170.597 77.2041 170.359 77.3172C170.121 77.4303 169.86 77.5208 169.566 77.5887C169.271 77.6452 168.965 77.7018 168.648 77.7357C168.331 77.7697 168.013 77.781 167.696 77.781C166.971 77.781 166.336 77.7244 165.793 77.6113C165.249 77.4982 164.83 77.3172 164.535 77.0683C164.24 76.8195 164.093 76.5027 164.093 76.1068C164.093 76.0163 164.093 75.9371 164.093 75.8693C164.093 75.8014 164.104 75.7448 164.116 75.6883H161.668C161.668 75.6883 161.657 75.7448 161.657 75.7788V75.8693C161.657 76.7403 161.816 77.4643 162.122 78.0185C162.428 78.5728 162.858 79.014 163.413 79.3194C163.968 79.6248 164.614 79.8398 165.351 79.9642C166.087 80.0886 166.88 80.1452 167.73 80.1452C168.897 80.1452 169.928 80.0094 170.823 79.738C171.718 79.4665 172.409 79.0253 172.908 78.4145C173.406 77.8036 173.656 76.9892 173.656 75.9711C173.656 75.315 173.531 74.7607 173.27 74.3082C173.021 73.8557 172.67 73.4824 172.239 73.1883V73.177Z" fill="white"/>
<path d="M186.663 67.4192C185.586 66.8989 184.306 66.6274 182.822 66.6274C181.337 66.6274 180.057 66.8876 178.981 67.4192C177.904 67.9509 177.077 68.7088 176.5 69.7043C175.922 70.711 175.627 71.9327 175.627 73.3693C175.627 74.8059 175.922 76.0389 176.5 77.0457C177.077 78.0525 177.904 78.8217 178.981 79.342C180.057 79.8624 181.337 80.1339 182.822 80.1339C184.306 80.1339 185.586 79.8737 186.663 79.342C187.739 78.8217 188.566 78.0525 189.144 77.0457C189.722 76.0389 190.016 74.8173 190.016 73.3693C190.016 71.9214 189.722 70.6997 189.144 69.7043C188.566 68.7088 187.739 67.9396 186.663 67.4192ZM187.478 73.5843C187.478 74.263 187.365 74.8738 187.127 75.3942C186.889 75.9145 186.572 76.3444 186.153 76.6837C185.734 77.0231 185.246 77.2833 184.68 77.4643C184.113 77.6452 183.501 77.7244 182.822 77.7244C182.142 77.7244 181.53 77.6339 180.964 77.4643C180.397 77.2833 179.91 77.0231 179.491 76.6837C179.071 76.3444 178.754 75.9145 178.516 75.3942C178.278 74.8738 178.176 74.2743 178.176 73.5843V73.1431C178.176 72.4644 178.29 71.8648 178.516 71.3445C178.743 70.8354 179.071 70.4056 179.491 70.0662C179.91 69.7269 180.397 69.4667 180.964 69.297C181.53 69.1273 182.142 69.0368 182.822 69.0368C183.501 69.0368 184.113 69.1273 184.68 69.297C185.246 69.4667 185.734 69.7269 186.153 70.0662C186.572 70.4056 186.9 70.8354 187.127 71.3445C187.365 71.8535 187.478 72.4531 187.478 73.1431V73.5843Z" fill="white"/>
<path d="M204.485 73.1205C204.825 72.4417 204.995 71.7178 204.995 70.9486C204.995 70.1794 204.87 69.5233 204.621 68.9011C204.371 68.2903 203.998 67.7925 203.488 67.4192C202.989 67.046 202.332 66.8536 201.539 66.8536H192.679V79.9076H195.149V75.2584H200.429L202.479 79.9076H205.267L202.887 74.7041C203.601 74.3195 204.133 73.7992 204.473 73.1205H204.485ZM202.049 72.34C201.777 72.6906 201.38 72.8603 200.87 72.8603H195.171V69.2744H200.87C201.222 69.2744 201.516 69.3423 201.754 69.478C201.992 69.6138 202.173 69.8061 202.287 70.0662C202.411 70.3264 202.468 70.6432 202.468 71.0051C202.468 71.5481 202.332 72.0006 202.049 72.34Z" fill="white"/>
<path d="M216.676 66.865L212.914 72.3173H212.756L209.039 66.865H206.06L211.532 74.6363V79.919H214.002V74.6363L219.497 66.865H216.676Z" fill="white"/>
<path d="M230.283 74.8964H234.804V75.0435C234.804 75.5865 234.645 76.0616 234.328 76.4688C234.011 76.876 233.524 77.1815 232.867 77.3964C232.209 77.6113 231.371 77.7244 230.351 77.7244C229.434 77.7244 228.629 77.5887 227.949 77.3059C227.269 77.0231 226.748 76.5819 226.374 75.9824C226.001 75.3829 225.819 74.591 225.819 73.5956V73.1431C225.819 72.4304 225.944 71.8196 226.182 71.2992C226.42 70.7789 226.76 70.349 227.19 70.021C227.621 69.6816 228.142 69.4328 228.731 69.2857C229.32 69.1273 229.966 69.0482 230.657 69.0482C231.201 69.0482 231.722 69.0934 232.209 69.1726C232.708 69.2518 233.15 69.3875 233.535 69.5685C233.932 69.7495 234.237 69.9984 234.464 70.3151C234.691 70.6318 234.804 71.0164 234.804 71.4689H237.217C237.217 70.6431 237.059 69.9305 236.741 69.3196C236.424 68.7088 235.96 68.2111 235.37 67.8038C234.781 67.4079 234.079 67.1025 233.263 66.9102C232.447 66.7179 231.541 66.6161 230.555 66.6161C229.037 66.6161 227.734 66.865 226.635 67.374C225.536 67.883 224.709 68.6409 224.131 69.6477C223.553 70.6545 223.27 71.8988 223.27 73.3806C223.27 75.643 223.836 77.3398 224.958 78.4484C226.091 79.5683 227.779 80.1226 230.034 80.1226C230.77 80.1226 231.473 80.0547 232.141 79.919C232.81 79.7832 233.422 79.5796 233.977 79.2968C234.532 79.014 235.019 78.6407 235.416 78.1882L235.676 79.8963H237.206V72.6001H230.249V74.8738L230.283 74.8964Z" fill="white"/>
<path d="M252.071 73.1205C252.411 72.4417 252.581 71.7178 252.581 70.9486C252.581 70.1794 252.456 69.5233 252.207 68.9011C251.958 68.2903 251.584 67.7925 251.074 67.4192C250.575 67.046 249.918 66.8536 249.125 66.8536H240.265V79.9076H242.735V75.2584H248.015L250.066 79.9076H252.853L250.473 74.7041C251.187 74.3195 251.72 73.7992 252.06 73.1205H252.071ZM249.624 72.34C249.352 72.6906 248.955 72.8603 248.445 72.8603H242.746V69.2744H248.445C248.797 69.2744 249.091 69.3423 249.329 69.478C249.567 69.6138 249.748 69.8061 249.862 70.0662C249.986 70.3264 250.043 70.6432 250.043 71.0051C250.043 71.5481 249.907 72.0006 249.624 72.34Z" fill="white"/>
<path d="M265.803 67.4192C264.727 66.8989 263.446 66.6274 261.962 66.6274C260.478 66.6274 259.198 66.8876 258.121 67.4192C257.045 67.9509 256.218 68.7088 255.64 69.7043C255.062 70.711 254.768 71.9327 254.768 73.3693C254.768 74.8059 255.062 76.0389 255.64 77.0457C256.218 78.0525 257.045 78.8217 258.121 79.342C259.198 79.8624 260.478 80.1339 261.962 80.1339C263.446 80.1339 264.727 79.8737 265.803 79.342C266.879 78.8217 267.706 78.0525 268.284 77.0457C268.862 76.0389 269.157 74.8173 269.157 73.3693C269.157 71.9214 268.862 70.6997 268.284 69.7043C267.706 68.7088 266.879 67.9396 265.803 67.4192ZM266.619 73.5843C266.619 74.263 266.505 74.8738 266.268 75.3942C266.03 75.9145 265.712 76.3444 265.293 76.6837C264.874 77.0231 264.387 77.2833 263.82 77.4643C263.254 77.6452 262.642 77.7244 261.962 77.7244C261.282 77.7244 260.67 77.6339 260.104 77.4643C259.537 77.2833 259.05 77.0231 258.631 76.6837C258.212 76.3444 257.895 75.9145 257.657 75.3942C257.43 74.8738 257.317 74.2743 257.317 73.5843V73.1431C257.317 72.4644 257.43 71.8648 257.657 71.3445C257.883 70.8354 258.212 70.4056 258.631 70.0662C259.05 69.7269 259.537 69.4667 260.104 69.297C260.67 69.1273 261.282 69.0368 261.962 69.0368C262.642 69.0368 263.254 69.1273 263.82 69.297C264.387 69.4667 264.874 69.7269 265.293 70.0662C265.712 70.4056 266.041 70.8354 266.268 71.3445C266.505 71.8535 266.619 72.4531 266.619 73.1431V73.5843Z" fill="white"/>
<path d="M281.665 73.7992C281.665 75.0548 281.336 76.0163 280.691 76.7064C280.045 77.3851 279.127 77.7357 277.926 77.7357C276.725 77.7357 275.807 77.3964 275.162 76.7064C274.516 76.0163 274.187 75.0548 274.187 73.7992V66.865H271.717V73.9349C271.717 75.2019 271.944 76.2991 272.397 77.2267C272.85 78.1543 273.53 78.8783 274.448 79.3873C275.366 79.8963 276.521 80.1452 277.926 80.1452C279.331 80.1452 280.498 79.8963 281.416 79.3873C282.322 78.8783 283.013 78.1656 283.455 77.2267C283.908 76.2991 284.135 75.2019 284.135 73.9349V66.865H281.665V73.7992Z" fill="white"/>
<path d="M297.301 67.4192C296.768 67.046 296.134 66.865 295.408 66.865H287.205V79.919H289.675V75.4394H295.34C296.077 75.4394 296.723 75.2584 297.267 74.8851C297.81 74.5118 298.241 74.0141 298.547 73.358C298.853 72.7019 299 71.9667 299 71.1409C299 70.3151 298.853 69.5685 298.558 68.9237C298.264 68.279 297.844 67.7812 297.301 67.4192ZM295.998 72.5209C295.68 72.849 295.227 73.0187 294.649 73.0187H289.664V69.2744H294.649C295.035 69.2744 295.374 69.3536 295.646 69.5006C295.918 69.6477 296.122 69.8739 296.269 70.1454C296.405 70.4282 296.485 70.7563 296.485 71.1522C296.485 71.7404 296.326 72.1929 296.009 72.5209H295.998Z" fill="white"/>
<path d="M187.467 28.1441H209.583C212.835 28.1441 215.6 30.1237 216.801 32.9404C217.038 33.4834 217.548 33.8567 218.149 33.8567H224.505C225.445 33.8567 226.136 32.9743 225.921 32.0581C224.142 24.694 217.503 19.219 209.583 19.219H187.467C178.176 19.219 170.642 26.7415 170.642 36.0173V40.6212C170.642 49.897 178.176 57.4195 187.467 57.4195H209.583C217.514 57.4195 224.142 51.9445 225.921 44.5804C226.148 43.6641 225.457 42.7818 224.505 42.7818H218.149C217.548 42.7818 217.038 43.1551 216.801 43.6981C215.6 46.5148 212.835 48.4943 209.583 48.4943H187.467C183.116 48.4943 179.581 44.965 179.581 40.6212V36.0173C179.581 31.6735 183.116 28.1441 187.467 28.1441Z" fill="white"/>
<path d="M288.033 57.4308C284.169 57.4308 280.589 55.3833 278.606 51.854L267.831 32.6124C267.378 31.8092 266.653 31.6961 266.256 31.6961C265.86 31.6961 265.135 31.8205 264.681 32.6124L253.906 51.854C251.448 56.243 246.519 58.3357 241.647 57.0688C236.775 55.8019 233.501 51.5712 233.501 46.5487V20.6217C233.501 19.8525 234.124 19.219 234.906 19.219H241.194C241.965 19.219 242.599 19.8412 242.599 20.6217V46.5487C242.599 47.7591 243.449 48.155 243.947 48.2907C244.446 48.4265 245.386 48.483 245.975 47.431L257.747 26.4247C259.062 24.0832 261.532 22.6352 264.228 22.6352H268.307C270.992 22.6352 273.473 24.0832 274.788 26.4247L286.56 47.431C287.149 48.483 288.089 48.4265 288.588 48.2907C289.086 48.155 289.936 47.7591 289.936 46.5487V20.6217C289.936 19.8525 290.559 19.219 291.341 19.219H297.629C298.4 19.219 299.034 19.8412 299.034 20.6217V48.155C299.034 50.2364 298.218 52.2499 296.723 53.6978C294.06 56.2657 290.978 57.4421 288.067 57.4421L288.033 57.4308Z" fill="white"/>
<path d="M146.985 19.219H113.844C112.768 19.219 112.054 20.09 112.043 21.0063V55.7679H112.054C112.088 56.6276 112.757 57.4421 113.788 57.4421H146.996C156.287 57.4421 163.821 49.9197 163.821 40.6439V36.0399C163.821 26.7641 156.287 19.2416 146.996 19.2416L146.985 19.219ZM154.87 40.6325C154.87 44.9763 151.335 48.5057 146.985 48.5057H121.13V28.1441H146.985C151.335 28.1441 154.87 31.6735 154.87 36.0173V40.6325Z" fill="white"/>
<path d="M60.7517 36.0286L53.5458 43.2569C51.6764 45.1347 48.4586 43.8112 48.4586 41.1642V2.5565C48.4586 -0.384604 52.6168 -1.00676 53.4778 1.80991L62.168 30.3613C62.7798 32.3635 62.236 34.5354 60.7517 36.0173V36.0286Z" fill="#00C112"/>
<path d="M36.1542 60.9941L43.3601 53.7657C45.2409 51.8879 48.4586 53.2114 48.4586 55.8697V94.4548C48.4586 97.3959 44.3005 98.0181 43.4394 95.2014L34.7493 66.6387C34.1374 64.6478 34.6813 62.4759 36.1542 61.0054V60.9941Z" fill="#00C112"/>
<path d="M61.0803 60.8923L53.8404 53.6978C51.9596 51.8314 53.2852 48.6188 55.9365 48.6188H94.5946C97.5404 48.6188 98.1636 52.7703 95.3424 53.63L66.7453 62.3062C64.7399 62.9171 62.5645 62.3741 61.0803 60.8923Z" fill="#00C112"/>
<path d="M36.0749 36.334L43.3148 43.5284C45.1956 45.4062 43.8699 48.6188 41.2074 48.6188H2.5606C-0.385217 48.6188 -1.00837 44.4673 1.81281 43.6076L30.4212 34.9313C32.4153 34.3205 34.5906 34.8634 36.0635 36.334H36.0749Z" fill="#00C112"/>
<path d="M62.4286 72.2721V66.5708C62.4172 65.089 64.2074 64.3424 65.2498 65.3944L75.1522 75.2811C77.237 77.3624 74.733 80.7334 72.1384 79.342L64.1054 75.0661C63.0744 74.5118 62.4286 73.4372 62.4286 72.2721Z" fill="#00C112"/>
<path d="M34.3867 24.8524V30.5536C34.398 32.0355 32.6079 32.782 31.5542 31.73L21.6517 21.8434C19.567 19.762 22.0709 16.391 24.6655 17.7824L32.6985 22.0696C33.7296 22.6126 34.3754 23.6872 34.3754 24.8524H34.3867Z" fill="#00C112"/>
<path d="M24.5749 62.5664H30.2852C31.7695 62.5551 32.5172 64.3424 31.4636 65.3831L21.5611 75.2697C19.4764 77.3511 16.1 74.8512 17.4936 72.2608L21.7764 64.2406C22.3315 63.2112 23.4079 62.5664 24.5749 62.5664Z" fill="#00C112"/>
<path d="M72.0591 34.5693H66.3488C64.8645 34.5806 64.1168 32.7934 65.1705 31.7413L75.0729 21.8547C77.1576 19.7733 80.534 22.2732 79.1404 24.8637L74.8463 32.8839C74.3025 33.9132 73.2261 34.558 72.0591 34.558V34.5693Z" fill="#00C112"/>
</svg>
