<svg width="232" height="38" viewBox="0 0 232 38" fill="none" xmlns="http://www.w3.org/2000/svg">
<path d="M5.95 6.656C7.242 6.656 8.25917 6.9705 9.0015 7.5995C9.74383 8.22283 10.115 9.14933 10.115 10.379C10.115 11.1723 9.94217 11.8552 9.5965 12.4275C9.25083 12.9942 8.76067 13.4248 8.126 13.7195C7.49133 14.0142 6.749 14.1615 5.899 14.1615C4.37467 14.1615 3.1875 13.6713 2.3375 12.691C1.49317 11.7107 1.071 10.1892 1.071 8.1265C1.071 5.84283 1.56683 4.12867 2.5585 2.984C3.55583 1.83367 5.00933 1.2585 6.919 1.2585C7.956 1.2585 8.8145 1.39167 9.4945 1.658V3.12C9.13183 2.984 8.73517 2.882 8.3045 2.814C7.87383 2.746 7.44317 2.712 7.0125 2.712C5.64683 2.712 4.624 3.10583 3.944 3.8935C3.264 4.68117 2.9155 5.88533 2.8985 7.506C3.29517 7.24533 3.7655 7.0385 4.3095 6.8855C4.8535 6.7325 5.40033 6.656 5.95 6.656ZM5.9075 12.776C6.6725 12.776 7.27883 12.5805 7.7265 12.1895C8.17417 11.7985 8.398 11.212 8.398 10.43C8.398 9.62533 8.15717 9.0275 7.6755 8.6365C7.19383 8.23983 6.50817 8.0415 5.6185 8.0415C5.14817 8.0415 4.67217 8.1095 4.1905 8.2455C3.70883 8.3815 3.281 8.5855 2.907 8.8575C2.958 10.2628 3.23567 11.2687 3.74 11.875C4.25 12.4757 4.9725 12.776 5.9075 12.776ZM14.5195 1.3775H15.7435V14H13.8735V3.6555L10.465 6.0695V4.259L14.5195 1.3775ZM25.3831 7.523C26.2898 7.863 26.9415 8.288 27.3381 8.798C27.7405 9.30233 27.9416 9.92 27.9416 10.651C27.9416 11.348 27.7575 11.96 27.3891 12.487C27.0265 13.014 26.4825 13.4248 25.7571 13.7195C25.0375 14.0142 24.1535 14.1615 23.1051 14.1615C21.4618 14.1615 20.2208 13.8697 19.3821 13.286C18.5491 12.7023 18.1326 11.8892 18.1326 10.8465C18.1326 10.1098 18.3423 9.4695 18.7616 8.9255C19.181 8.37583 19.7788 7.948 20.5551 7.642C19.8525 7.29633 19.3425 6.877 19.0251 6.384C18.7078 5.88533 18.5491 5.30167 18.5491 4.633C18.5491 3.94733 18.7248 3.35233 19.0761 2.848C19.4275 2.34367 19.946 1.95267 20.6316 1.675C21.3173 1.39733 22.1503 1.2585 23.1306 1.2585C24.0486 1.2585 24.8363 1.386 25.4936 1.641C26.1566 1.896 26.661 2.2615 27.0066 2.7375C27.3523 3.2135 27.5251 3.78017 27.5251 4.4375C27.5251 5.8315 26.8111 6.86 25.3831 7.523ZM23.0881 2.6015C22.1758 2.6015 21.4873 2.77717 21.0226 3.1285C20.5636 3.47417 20.3341 3.953 20.3341 4.565C20.3341 4.99567 20.4305 5.35833 20.6231 5.653C20.8215 5.942 21.1615 6.19983 21.6431 6.4265C22.1305 6.6475 22.8133 6.8515 23.6916 7.0385C23.805 7.06117 23.8871 7.081 23.9381 7.098C24.6181 6.792 25.1111 6.44067 25.4171 6.044C25.7231 5.64733 25.8761 5.1685 25.8761 4.6075C25.8761 3.95583 25.6353 3.46 25.1536 3.12C24.6776 2.77433 23.9891 2.6015 23.0881 2.6015ZM23.1221 12.8185C24.1251 12.8185 24.8845 12.6428 25.4001 12.2915C25.9158 11.9402 26.1736 11.433 26.1736 10.77C26.1736 10.345 26.0716 9.99083 25.8676 9.7075C25.6636 9.42417 25.3236 9.17767 24.8476 8.968C24.3716 8.75833 23.7115 8.56283 22.8671 8.3815C22.4421 8.29083 22.1135 8.20867 21.8811 8.135C21.2295 8.38433 20.7365 8.72717 20.4021 9.1635C20.0735 9.59417 19.9091 10.0843 19.9091 10.634C19.9091 11.348 20.1783 11.892 20.7166 12.266C21.255 12.6343 22.0568 12.8185 23.1221 12.8185ZM36.6007 12.4955H43.4517V14H34.7477V1.42H43.3667V2.9245H36.6007V6.8005H42.5082V8.305H36.6007V12.4955ZM53.0448 14.1615C52.4498 14.1615 51.8519 14.1133 51.2513 14.017C50.6563 13.9263 50.0953 13.7932 49.5683 13.6175V12.0705C50.1123 12.2518 50.6903 12.3907 51.3023 12.487C51.9199 12.5833 52.5036 12.6315 53.0533 12.6315C54.0846 12.6315 54.8439 12.4587 55.3313 12.113C55.8186 11.7673 56.0623 11.2573 56.0623 10.583C56.0623 10.2033 55.9829 9.89167 55.8243 9.648C55.6713 9.39867 55.4191 9.189 55.0678 9.019C54.7164 8.849 54.2376 8.696 53.6313 8.56L52.8153 8.373C51.6253 8.11233 50.7469 7.69867 50.1803 7.132C49.6136 6.56533 49.3303 5.8145 49.3303 4.8795C49.3303 4.12017 49.5144 3.47133 49.8828 2.933C50.2511 2.39467 50.8036 1.981 51.5403 1.692C52.2826 1.403 53.1949 1.2585 54.2773 1.2585C54.8269 1.2585 55.3624 1.29533 55.8838 1.369C56.4108 1.437 56.8953 1.53617 57.3373 1.6665V3.2135C56.4193 2.93017 55.4191 2.7885 54.3368 2.7885C52.2458 2.7885 51.2003 3.45433 51.2003 4.786C51.2003 5.15433 51.2683 5.46317 51.4043 5.7125C51.5459 5.95617 51.7754 6.163 52.0928 6.333C52.4158 6.503 52.8549 6.65033 53.4103 6.775L54.2178 6.962C55.5154 7.24533 56.4589 7.67033 57.0483 8.237C57.6376 8.798 57.9323 9.546 57.9323 10.481C57.9323 11.2517 57.7396 11.9147 57.3543 12.47C56.9689 13.0197 56.4108 13.439 55.6798 13.728C54.9488 14.017 54.0704 14.1615 53.0448 14.1615ZM64.0128 14.17C63.1118 14.17 62.3327 13.9972 61.6753 13.6515C61.0237 13.3002 60.5193 12.7675 60.1623 12.0535C59.8053 11.3395 59.6268 10.4498 59.6268 9.3845C59.6268 7.79783 60.0122 6.605 60.7828 5.806C61.5535 5.007 62.6302 4.6075 64.0128 4.6075C65.4012 4.6075 66.4778 5.007 67.2428 5.806C68.0135 6.59933 68.3988 7.79217 68.3988 9.3845C68.3988 10.4385 68.2175 11.3225 67.8548 12.0365C67.4978 12.7505 66.9907 13.286 66.3333 13.643C65.6817 13.9943 64.9082 14.17 64.0128 14.17ZM64.0128 12.7165C64.8345 12.7165 65.4607 12.4587 65.8913 11.943C66.3277 11.4217 66.5458 10.5717 66.5458 9.393C66.5458 8.20867 66.3277 7.35867 65.8913 6.843C65.4607 6.32167 64.8345 6.061 64.0128 6.061C63.1912 6.061 62.5622 6.31883 62.1258 6.8345C61.6952 7.35017 61.4798 8.1945 61.4798 9.3675C61.4798 10.5575 61.6952 11.4132 62.1258 11.9345C62.5565 12.4558 63.1855 12.7165 64.0128 12.7165ZM73.6829 14.153C72.6629 14.153 71.8611 13.8697 71.2774 13.303C70.6937 12.7363 70.4019 11.841 70.4019 10.617V4.752H72.2379V10.515C72.2379 11.246 72.3994 11.7702 72.7224 12.0875C73.0511 12.4048 73.5157 12.5635 74.1164 12.5635C74.5641 12.5635 75.0089 12.47 75.4509 12.283C75.8929 12.096 76.2697 11.824 76.5814 11.467V4.752H78.4174V14H76.8959L76.7684 13.014H76.6749C76.2726 13.388 75.8136 13.6713 75.2979 13.864C74.7879 14.0567 74.2496 14.153 73.6829 14.153ZM85.4902 12.6315C85.8245 12.6315 86.2155 12.5833 86.6632 12.487V13.9745C86.1475 14.0992 85.6064 14.1615 85.0397 14.1615C83.9574 14.1615 83.13 13.8923 82.5577 13.354C81.991 12.8157 81.7077 11.9912 81.7077 10.8805V6.231H79.9567V4.752H81.7077L82.0307 1.42H83.5437V4.752H86.5442V6.231H83.5437V10.566C83.5437 11.314 83.6995 11.8467 84.0112 12.164C84.3285 12.4757 84.8215 12.6315 85.4902 12.6315ZM88.2263 0.264H90.0623V5.7465H90.1558C90.5468 5.3725 90.9944 5.08917 91.4988 4.8965C92.0088 4.70383 92.5528 4.6075 93.1308 4.6075C94.1111 4.6075 94.8874 4.89367 95.4598 5.466C96.0378 6.03833 96.3268 6.93367 96.3268 8.152V14H94.4908V8.254C94.4908 7.523 94.3236 7.00167 93.9893 6.69C93.6606 6.37267 93.1874 6.214 92.5698 6.214C92.0994 6.214 91.6404 6.30467 91.1928 6.486C90.7508 6.66733 90.3739 6.93933 90.0623 7.302V14H88.2263V0.264ZM106.369 14.1615C105.774 14.1615 105.176 14.1133 104.576 14.017C103.981 13.9263 103.42 13.7932 102.893 13.6175V12.0705C103.437 12.2518 104.015 12.3907 104.627 12.487C105.244 12.5833 105.828 12.6315 106.378 12.6315C107.409 12.6315 108.168 12.4587 108.656 12.113C109.143 11.7673 109.387 11.2573 109.387 10.583C109.387 10.2033 109.307 9.89167 109.149 9.648C108.996 9.39867 108.743 9.189 108.392 9.019C108.041 8.849 107.562 8.696 106.956 8.56L106.14 8.373C104.95 8.11233 104.071 7.69867 103.505 7.132C102.938 6.56533 102.655 5.8145 102.655 4.8795C102.655 4.12017 102.839 3.47133 103.207 2.933C103.575 2.39467 104.128 1.981 104.865 1.692C105.607 1.403 106.519 1.2585 107.602 1.2585C108.151 1.2585 108.687 1.29533 109.208 1.369C109.735 1.437 110.22 1.53617 110.662 1.6665V3.2135C109.744 2.93017 108.743 2.7885 107.661 2.7885C105.57 2.7885 104.525 3.45433 104.525 4.786C104.525 5.15433 104.593 5.46317 104.729 5.7125C104.87 5.95617 105.1 6.163 105.417 6.333C105.74 6.503 106.179 6.65033 106.735 6.775L107.542 6.962C108.84 7.24533 109.783 7.67033 110.373 8.237C110.962 8.798 111.257 9.546 111.257 10.481C111.257 11.2517 111.064 11.9147 110.679 12.47C110.293 13.0197 109.735 13.439 109.004 13.728C108.273 14.017 107.395 14.1615 106.369 14.1615ZM117.481 12.6315C117.816 12.6315 118.207 12.5833 118.654 12.487V13.9745C118.139 14.0992 117.598 14.1615 117.031 14.1615C115.949 14.1615 115.121 13.8923 114.549 13.354C113.982 12.8157 113.699 11.9912 113.699 10.8805V6.231H111.948V4.752H113.699L114.022 1.42H115.535V4.752H118.535V6.231H115.535V10.566C115.535 11.314 115.691 11.8467 116.002 12.164C116.32 12.4757 116.813 12.6315 117.481 12.6315ZM120.168 4.752H121.681L121.825 5.959H121.936C122.247 5.53967 122.65 5.21667 123.143 4.99C123.641 4.76333 124.171 4.65 124.732 4.65C125.027 4.65 125.305 4.6755 125.565 4.7265V6.3925C125.299 6.34717 124.987 6.3245 124.63 6.3245C124.149 6.3245 123.664 6.42367 123.177 6.622C122.689 6.81467 122.298 7.098 122.004 7.472V14H120.168V4.752ZM134.399 9.937H128.143C128.172 10.6113 128.302 11.1553 128.534 11.569C128.772 11.977 129.126 12.2773 129.597 12.47C130.067 12.657 130.676 12.7505 131.424 12.7505C132.184 12.7505 133.011 12.6287 133.906 12.385V13.796C132.971 14.0453 132.062 14.17 131.178 14.17C129.54 14.17 128.316 13.7847 127.506 13.014C126.701 12.2377 126.299 11.025 126.299 9.376C126.299 8.34467 126.46 7.47483 126.783 6.7665C127.112 6.0525 127.585 5.51417 128.203 5.1515C128.826 4.78883 129.574 4.6075 130.447 4.6075C131.727 4.6075 132.705 5.01833 133.379 5.84C134.059 6.656 134.399 7.85167 134.399 9.427V9.937ZM130.43 5.84C129.693 5.84 129.132 6.07517 128.747 6.5455C128.361 7.01583 128.157 7.76667 128.135 8.798H132.665C132.643 7.76667 132.444 7.01583 132.07 6.5455C131.702 6.07517 131.155 5.84 130.43 5.84ZM143.978 9.937H137.722C137.751 10.6113 137.881 11.1553 138.113 11.569C138.351 11.977 138.705 12.2773 139.176 12.47C139.646 12.657 140.255 12.7505 141.003 12.7505C141.763 12.7505 142.59 12.6287 143.485 12.385V13.796C142.55 14.0453 141.641 14.17 140.757 14.17C139.119 14.17 137.895 13.7847 137.085 13.014C136.28 12.2377 135.878 11.025 135.878 9.376C135.878 8.34467 136.039 7.47483 136.362 6.7665C136.691 6.0525 137.164 5.51417 137.782 5.1515C138.405 4.78883 139.153 4.6075 140.026 4.6075C141.306 4.6075 142.284 5.01833 142.958 5.84C143.638 6.656 143.978 7.85167 143.978 9.427V9.937ZM140.009 5.84C139.272 5.84 138.711 6.07517 138.326 6.5455C137.94 7.01583 137.736 7.76667 137.714 8.798H142.244C142.222 7.76667 142.023 7.01583 141.649 6.5455C141.281 6.07517 140.734 5.84 140.009 5.84ZM150.253 12.6315C150.587 12.6315 150.978 12.5833 151.426 12.487V13.9745C150.91 14.0992 150.369 14.1615 149.802 14.1615C148.72 14.1615 147.893 13.8923 147.32 13.354C146.754 12.8157 146.47 11.9912 146.47 10.8805V6.231H144.719V4.752H146.47L146.793 1.42H148.306V4.752H151.307V6.231H148.306V10.566C148.306 11.314 148.462 11.8467 148.774 12.164C149.091 12.4757 149.584 12.6315 150.253 12.6315ZM154.047 11.773C154.461 11.773 154.775 11.9005 154.991 12.1555C155.212 12.4105 155.322 12.793 155.322 13.303C155.322 13.9093 155.229 14.51 155.042 15.105C154.86 15.7057 154.611 16.2553 154.294 16.754H153.24C153.449 16.2383 153.614 15.7708 153.733 15.3515C153.852 14.9322 153.925 14.5213 153.954 14.119C153.608 14.0907 153.333 13.9717 153.129 13.762C152.925 13.5523 152.823 13.2775 152.823 12.9375C152.823 12.5805 152.931 12.2972 153.146 12.0875C153.367 11.8778 153.667 11.773 154.047 11.773ZM165.139 14.1615C164.544 14.1615 163.946 14.1133 163.345 14.017C162.75 13.9263 162.189 13.7932 161.662 13.6175V12.0705C162.206 12.2518 162.784 12.3907 163.396 12.487C164.014 12.5833 164.597 12.6315 165.147 12.6315C166.178 12.6315 166.938 12.4587 167.425 12.113C167.912 11.7673 168.156 11.2573 168.156 10.583C168.156 10.2033 168.077 9.89167 167.918 9.648C167.765 9.39867 167.513 9.189 167.162 9.019C166.81 8.849 166.331 8.696 165.725 8.56L164.909 8.373C163.719 8.11233 162.841 7.69867 162.274 7.132C161.707 6.56533 161.424 5.8145 161.424 4.8795C161.424 4.12017 161.608 3.47133 161.977 2.933C162.345 2.39467 162.897 1.981 163.634 1.692C164.376 1.403 165.289 1.2585 166.371 1.2585C166.921 1.2585 167.456 1.29533 167.978 1.369C168.505 1.437 168.989 1.53617 169.431 1.6665V3.2135C168.513 2.93017 167.513 2.7885 166.431 2.7885C164.34 2.7885 163.294 3.45433 163.294 4.786C163.294 5.15433 163.362 5.46317 163.498 5.7125C163.64 5.95617 163.869 6.163 164.187 6.333C164.51 6.503 164.949 6.65033 165.504 6.775L166.312 6.962C167.609 7.24533 168.553 7.67033 169.142 8.237C169.731 8.798 170.026 9.546 170.026 10.481C170.026 11.2517 169.833 11.9147 169.448 12.47C169.063 13.0197 168.505 13.439 167.774 13.728C167.043 14.017 166.164 14.1615 165.139 14.1615ZM175.152 14.153C174.132 14.153 173.33 13.8697 172.746 13.303C172.162 12.7363 171.871 11.841 171.871 10.617V4.752H173.707V10.515C173.707 11.246 173.868 11.7702 174.191 12.0875C174.52 12.4048 174.984 12.5635 175.585 12.5635C176.033 12.5635 176.478 12.47 176.92 12.283C177.362 12.096 177.738 11.824 178.05 11.467V4.752H179.886V14H178.365L178.237 13.014H178.144C177.741 13.388 177.282 13.6713 176.767 13.864C176.257 14.0567 175.718 14.153 175.152 14.153ZM182.49 14V4.752H184.326V14H182.49ZM183.408 2.9585C183.011 2.9585 182.711 2.87067 182.507 2.695C182.309 2.51367 182.209 2.25867 182.209 1.93C182.209 1.59567 182.311 1.33783 182.515 1.1565C182.719 0.975166 183.017 0.884499 183.408 0.884499C183.799 0.884499 184.096 0.975166 184.3 1.1565C184.504 1.33783 184.606 1.59567 184.606 1.93C184.606 2.25867 184.504 2.51367 184.3 2.695C184.102 2.87067 183.805 2.9585 183.408 2.9585ZM191.309 12.6315C191.643 12.6315 192.034 12.5833 192.482 12.487V13.9745C191.966 14.0992 191.425 14.1615 190.858 14.1615C189.776 14.1615 188.948 13.8923 188.376 13.354C187.809 12.8157 187.526 11.9912 187.526 10.8805V6.231H185.775V4.752H187.526L187.849 1.42H189.362V4.752H192.363V6.231H189.362V10.566C189.362 11.314 189.518 11.8467 189.83 12.164C190.147 12.4757 190.64 12.6315 191.309 12.6315ZM201.486 9.937H195.23C195.258 10.6113 195.389 11.1553 195.621 11.569C195.859 11.977 196.213 12.2773 196.684 12.47C197.154 12.657 197.763 12.7505 198.511 12.7505C199.27 12.7505 200.098 12.6287 200.993 12.385V13.796C200.058 14.0453 199.149 14.17 198.265 14.17C196.627 14.17 195.403 13.7847 194.593 13.014C193.788 12.2377 193.386 11.025 193.386 9.376C193.386 8.34467 193.547 7.47483 193.87 6.7665C194.199 6.0525 194.672 5.51417 195.29 5.1515C195.913 4.78883 196.661 4.6075 197.534 4.6075C198.814 4.6075 199.792 5.01833 200.466 5.84C201.146 6.656 201.486 7.85167 201.486 9.427V9.937ZM197.517 5.84C196.78 5.84 196.219 6.07517 195.834 6.5455C195.448 7.01583 195.244 7.76667 195.222 8.798H199.752C199.729 7.76667 199.531 7.01583 199.157 6.5455C198.789 6.07517 198.242 5.84 197.517 5.84ZM210.949 1.3775H212.173V14H210.303V3.6555L206.895 6.0695V4.259L210.949 1.3775ZM218.005 1.3775H219.229V14H217.359V3.6555L213.95 6.0695V4.259L218.005 1.3775ZM226.531 14.1615C225.012 14.1615 223.836 13.6402 223.003 12.5975C222.17 11.5548 221.754 9.92567 221.754 7.71C221.754 5.48867 222.165 3.8595 222.986 2.8225C223.814 1.77983 224.995 1.2585 226.531 1.2585C228.061 1.2585 229.24 1.77983 230.067 2.8225C230.9 3.8595 231.316 5.48867 231.316 7.71C231.316 9.92567 230.897 11.5548 230.058 12.5975C229.225 13.6402 228.05 14.1615 226.531 14.1615ZM226.539 12.5975C227.163 12.5975 227.687 12.4473 228.112 12.147C228.543 11.841 228.874 11.331 229.106 10.617C229.344 9.89733 229.463 8.934 229.463 7.727C229.463 6.50867 229.344 5.53967 229.106 4.82C228.874 4.09467 228.543 3.58183 228.112 3.2815C227.687 2.9755 227.163 2.8225 226.539 2.8225C225.91 2.8225 225.381 2.9755 224.95 3.2815C224.519 3.58183 224.188 4.089 223.955 4.803C223.723 5.517 223.607 6.48033 223.607 7.693C223.607 8.917 223.723 9.88883 223.955 10.6085C224.188 11.3282 224.516 11.841 224.941 12.147C225.372 12.4473 225.905 12.5975 226.539 12.5975ZM6.7405 35.1615C5.5505 35.1615 4.51917 34.9263 3.6465 34.456C2.7795 33.9857 2.108 33.2717 1.632 32.314C1.156 31.3507 0.918 30.1493 0.918 28.71C0.918 27.2707 1.156 26.0722 1.632 25.1145C2.11367 24.1512 2.788 23.4343 3.655 22.964C4.52767 22.4937 5.55617 22.2585 6.7405 22.2585C7.9305 22.2585 8.96183 22.4937 9.8345 22.964C10.7072 23.4343 11.3815 24.1512 11.8575 25.1145C12.3335 26.0778 12.5715 27.2763 12.5715 28.71C12.5715 30.1437 12.3307 31.3422 11.849 32.3055C11.373 33.2688 10.6987 33.9857 9.826 34.456C8.95333 34.9263 7.92483 35.1615 6.7405 35.1615ZM6.7405 33.6145C7.9815 33.6145 8.942 33.2235 9.622 32.4415C10.3077 31.6595 10.6505 30.4327 10.6505 28.761C10.6505 27.044 10.3077 25.7888 9.622 24.9955C8.942 24.2022 7.9815 23.8055 6.7405 23.8055C5.4995 23.8055 4.539 24.1965 3.859 24.9785C3.179 25.7548 2.839 26.9817 2.839 28.659C2.839 31.9627 4.1395 33.6145 6.7405 33.6145ZM14.781 25.752H16.294L16.4385 26.959H16.549C16.8606 26.5397 17.263 26.2167 17.756 25.99C18.2546 25.7633 18.7845 25.65 19.3455 25.65C19.6401 25.65 19.9178 25.6755 20.1785 25.7265V27.3925C19.9121 27.3472 19.6005 27.3245 19.2435 27.3245C18.7618 27.3245 18.2773 27.4237 17.79 27.622C17.3026 27.8147 16.9116 28.098 16.617 28.472V35H14.781V25.752ZM21.6872 35V21.264H23.5232V35H21.6872ZM29.2223 25.6075C30.1403 25.6075 30.8883 25.7208 31.4663 25.9475C32.05 26.1742 32.4863 26.5482 32.7753 27.0695C33.0643 27.5908 33.2088 28.2963 33.2088 29.186V35H31.6788L31.5428 33.997H31.4408C31.1292 34.3653 30.7268 34.6515 30.2338 34.8555C29.7408 35.0538 29.211 35.153 28.6443 35.153C28.0097 35.153 27.4657 35.0482 27.0123 34.8385C26.559 34.6288 26.2133 34.3313 25.9753 33.946C25.7373 33.555 25.6183 33.0988 25.6183 32.5775C25.6183 31.7502 25.9102 31.1098 26.4938 30.6565C27.0832 30.1975 28.0182 29.9113 29.2988 29.798L31.4068 29.5855V29.084C31.4068 28.557 31.319 28.1462 31.1433 27.8515C30.9733 27.5512 30.7098 27.3415 30.3528 27.2225C30.0015 27.0978 29.534 27.0355 28.9503 27.0355C28.5423 27.0355 28.1032 27.0695 27.6328 27.1375C27.1625 27.2055 26.712 27.3103 26.2813 27.452V26.0325C26.7063 25.8965 27.1823 25.7917 27.7093 25.718C28.2363 25.6443 28.7407 25.6075 29.2223 25.6075ZM29.1543 33.8355C29.5737 33.8355 29.976 33.7562 30.3613 33.5975C30.7523 33.4388 31.1008 33.2008 31.4068 32.8835V30.7075L29.4433 30.903C28.7407 30.9767 28.2335 31.1382 27.9218 31.3875C27.6102 31.6312 27.4543 31.9768 27.4543 32.4245C27.4543 32.8778 27.596 33.2263 27.8793 33.47C28.1627 33.7137 28.5877 33.8355 29.1543 33.8355ZM35.6989 25.752H37.2204L37.3479 26.772H37.4499C37.8523 26.398 38.3169 26.1118 38.8439 25.9135C39.3766 25.7095 39.9348 25.6075 40.5184 25.6075C41.5384 25.6075 42.3403 25.8965 42.9239 26.4745C43.5076 27.0468 43.7994 27.9478 43.7994 29.1775V35H41.9634V29.2625C41.9634 28.5258 41.7991 27.9988 41.4704 27.6815C41.1474 27.3642 40.6714 27.2055 40.0424 27.2055C39.5834 27.2055 39.1301 27.2962 38.6824 27.4775C38.2348 27.6532 37.8523 27.9252 37.5349 28.2935V35H35.6989V25.752ZM49.7502 35.1615C48.9852 35.1615 48.3052 35 47.7102 34.677C47.1209 34.354 46.6534 33.8525 46.3077 33.1725C45.9677 32.4868 45.7977 31.6198 45.7977 30.5715C45.7977 28.9395 46.2227 27.7042 47.0727 26.8655C47.9284 26.0212 49.1751 25.599 50.8127 25.599C51.2717 25.599 51.8129 25.6443 52.4362 25.735V21.264H54.2722V35H52.7252L52.6062 33.98H52.5042C52.1812 34.3483 51.7846 34.6373 51.3142 34.847C50.8439 35.0567 50.3226 35.1615 49.7502 35.1615ZM50.2092 33.6315C50.6456 33.6315 51.0564 33.5493 51.4417 33.385C51.8271 33.2207 52.1586 32.9628 52.4362 32.6115V27.2225C51.9716 27.1035 51.4389 27.044 50.8382 27.044C49.7616 27.044 48.9597 27.316 48.4327 27.86C47.9114 28.3983 47.6507 29.2512 47.6507 30.4185C47.6507 31.5632 47.8717 32.3848 48.3137 32.8835C48.7614 33.3822 49.3932 33.6315 50.2092 33.6315ZM60.7589 35.17C59.8579 35.17 59.0788 34.9972 58.4214 34.6515C57.7698 34.3002 57.2654 33.7675 56.9084 33.0535C56.5514 32.3395 56.3729 31.4498 56.3729 30.3845C56.3729 28.7978 56.7583 27.605 57.5289 26.806C58.2996 26.007 59.3763 25.6075 60.7589 25.6075C62.1473 25.6075 63.2239 26.007 63.9889 26.806C64.7596 27.5993 65.1449 28.7922 65.1449 30.3845C65.1449 31.4385 64.9636 32.3225 64.6009 33.0365C64.2439 33.7505 63.7368 34.286 63.0794 34.643C62.4278 34.9943 61.6543 35.17 60.7589 35.17ZM60.7589 33.7165C61.5806 33.7165 62.2068 33.4587 62.6374 32.943C63.0738 32.4217 63.2919 31.5717 63.2919 30.393C63.2919 29.2087 63.0738 28.3587 62.6374 27.843C62.2068 27.3217 61.5806 27.061 60.7589 27.061C59.9373 27.061 59.3083 27.3188 58.8719 27.8345C58.4413 28.3502 58.2259 29.1945 58.2259 30.3675C58.2259 31.5575 58.4413 32.4132 58.8719 32.9345C59.3026 33.4558 59.9316 33.7165 60.7589 33.7165ZM67.8352 32.773C68.2488 32.773 68.5633 32.9005 68.7787 33.1555C68.9997 33.4105 69.1102 33.793 69.1102 34.303C69.1102 34.9093 69.0167 35.51 68.8297 36.105C68.6483 36.7057 68.399 37.2553 68.0817 37.754H67.0277C67.2373 37.2383 67.4017 36.7708 67.5207 36.3515C67.6397 35.9322 67.7133 35.5213 67.7417 35.119C67.396 35.0907 67.1212 34.9717 66.9172 34.762C66.7132 34.5523 66.6112 34.2775 66.6112 33.9375C66.6112 33.5805 66.7188 33.2972 66.9342 33.0875C67.1552 32.8778 67.4555 32.773 67.8352 32.773ZM84.5706 23.95H77.8726V27.9535H83.7036V29.4835H77.8726V35H76.0026V22.42H84.5706V23.95ZM86.4001 35V21.264H88.2361V35H86.4001ZM94.7257 35.17C93.8247 35.17 93.0456 34.9972 92.3882 34.6515C91.7366 34.3002 91.2322 33.7675 90.8752 33.0535C90.5182 32.3395 90.3397 31.4498 90.3397 30.3845C90.3397 28.7978 90.7251 27.605 91.4957 26.806C92.2664 26.007 93.3431 25.6075 94.7257 25.6075C96.1141 25.6075 97.1907 26.007 97.9557 26.806C98.7264 27.5993 99.1117 28.7922 99.1117 30.3845C99.1117 31.4385 98.9304 32.3225 98.5677 33.0365C98.2107 33.7505 97.7036 34.286 97.0462 34.643C96.3946 34.9943 95.6211 35.17 94.7257 35.17ZM94.7257 33.7165C95.5474 33.7165 96.1736 33.4587 96.6042 32.943C97.0406 32.4217 97.2587 31.5717 97.2587 30.393C97.2587 29.2087 97.0406 28.3587 96.6042 27.843C96.1736 27.3217 95.5474 27.061 94.7257 27.061C93.9041 27.061 93.2751 27.3188 92.8387 27.8345C92.4081 28.3502 92.1927 29.1945 92.1927 30.3675C92.1927 31.5575 92.4081 32.4132 92.8387 32.9345C93.2694 33.4558 93.8984 33.7165 94.7257 33.7165ZM101.225 25.752H102.738L102.883 26.959H102.993C103.305 26.5397 103.707 26.2167 104.2 25.99C104.699 25.7633 105.229 25.65 105.79 25.65C106.084 25.65 106.362 25.6755 106.623 25.7265V27.3925C106.356 27.3472 106.045 27.3245 105.688 27.3245C105.206 27.3245 104.722 27.4237 104.234 27.622C103.747 27.8147 103.356 28.098 103.061 28.472V35H101.225V25.752ZM108.132 35V25.752H109.968V35H108.132ZM109.05 23.9585C108.653 23.9585 108.353 23.8707 108.149 23.695C107.95 23.5137 107.851 23.2587 107.851 22.93C107.851 22.5957 107.953 22.3378 108.157 22.1565C108.361 21.9752 108.659 21.8845 109.05 21.8845C109.441 21.8845 109.738 21.9752 109.942 22.1565C110.146 22.3378 110.248 22.5957 110.248 22.93C110.248 23.2587 110.146 23.5137 109.942 23.695C109.744 23.8707 109.446 23.9585 109.05 23.9585ZM116.024 35.1615C115.259 35.1615 114.579 35 113.984 34.677C113.394 34.354 112.927 33.8525 112.581 33.1725C112.241 32.4868 112.071 31.6198 112.071 30.5715C112.071 28.9395 112.496 27.7042 113.346 26.8655C114.202 26.0212 115.449 25.599 117.086 25.599C117.545 25.599 118.086 25.6443 118.71 25.735V21.264H120.546V35H118.999L118.88 33.98H118.778C118.455 34.3483 118.058 34.6373 117.588 34.847C117.117 35.0567 116.596 35.1615 116.024 35.1615ZM116.483 33.6315C116.919 33.6315 117.33 33.5493 117.715 33.385C118.101 33.2207 118.432 32.9628 118.71 32.6115V27.2225C118.245 27.1035 117.712 27.044 117.112 27.044C116.035 27.044 115.233 27.316 114.706 27.86C114.185 28.3983 113.924 29.2512 113.924 30.4185C113.924 31.5632 114.145 32.3848 114.587 32.8835C115.035 33.3822 115.667 33.6315 116.483 33.6315ZM126.242 25.6075C127.16 25.6075 127.908 25.7208 128.486 25.9475C129.07 26.1742 129.506 26.5482 129.795 27.0695C130.084 27.5908 130.228 28.2963 130.228 29.186V35H128.698L128.562 33.997H128.46C128.149 34.3653 127.746 34.6515 127.253 34.8555C126.76 35.0538 126.231 35.153 125.664 35.153C125.029 35.153 124.485 35.0482 124.032 34.8385C123.579 34.6288 123.233 34.3313 122.995 33.946C122.757 33.555 122.638 33.0988 122.638 32.5775C122.638 31.7502 122.93 31.1098 123.513 30.6565C124.103 30.1975 125.038 29.9113 126.318 29.798L128.426 29.5855V29.084C128.426 28.557 128.339 28.1462 128.163 27.8515C127.993 27.5512 127.729 27.3415 127.372 27.2225C127.021 27.0978 126.554 27.0355 125.97 27.0355C125.562 27.0355 125.123 27.0695 124.652 27.1375C124.182 27.2055 123.732 27.3103 123.301 27.452V26.0325C123.726 25.8965 124.202 25.7917 124.729 25.718C125.256 25.6443 125.76 25.6075 126.242 25.6075ZM126.174 33.8355C126.593 33.8355 126.996 33.7562 127.381 33.5975C127.772 33.4388 128.12 33.2008 128.426 32.8835V30.7075L126.463 30.903C125.76 30.9767 125.253 31.1382 124.941 31.3875C124.63 31.6312 124.474 31.9768 124.474 32.4245C124.474 32.8778 124.616 33.2263 124.899 33.47C125.182 33.7137 125.607 33.8355 126.174 33.8355ZM141.918 28.4635C142.791 28.6448 143.46 28.9962 143.924 29.5175C144.389 30.0332 144.621 30.7047 144.621 31.532C144.621 32.688 144.211 33.5833 143.389 34.218C142.567 34.847 141.332 35.1615 139.683 35.1615C139.111 35.1615 138.541 35.119 137.974 35.034C137.408 34.949 136.869 34.83 136.359 34.677V33.232C136.875 33.3907 137.416 33.5153 137.983 33.606C138.55 33.691 139.096 33.7335 139.623 33.7335C141.777 33.7335 142.853 32.9657 142.853 31.43C142.853 30.7217 142.61 30.1862 142.122 29.8235C141.635 29.4552 140.873 29.271 139.836 29.271H138V27.8345H139.13C141.301 27.8345 142.386 27.1148 142.386 25.6755C142.386 25.0295 142.156 24.5365 141.697 24.1965C141.244 23.8565 140.567 23.6865 139.666 23.6865C139.173 23.6865 138.669 23.729 138.153 23.814C137.643 23.8933 137.153 24.0095 136.682 24.1625V22.726C137.124 22.5787 137.623 22.4653 138.178 22.386C138.739 22.301 139.292 22.2585 139.836 22.2585C141.253 22.2585 142.332 22.5447 143.074 23.117C143.822 23.6837 144.196 24.4883 144.196 25.531C144.196 26.2507 143.995 26.8655 143.593 27.3755C143.191 27.8798 142.632 28.2425 141.918 28.4635ZM153.651 33.453V35H145.534V33.997L149.342 29.4155C149.976 28.6505 150.424 28.0045 150.685 27.4775C150.945 26.9448 151.076 26.4292 151.076 25.9305C151.076 25.1938 150.855 24.6527 150.413 24.307C149.976 23.9613 149.293 23.7885 148.364 23.7885C147.831 23.7885 147.31 23.8338 146.8 23.9245C146.29 24.0095 145.817 24.1342 145.381 24.2985V22.7515C145.789 22.6042 146.273 22.4852 146.834 22.3945C147.401 22.3038 147.962 22.2585 148.517 22.2585C149.985 22.2585 151.087 22.5447 151.824 23.117C152.56 23.6893 152.929 24.5677 152.929 25.752C152.929 26.2167 152.863 26.6643 152.733 27.095C152.603 27.5257 152.39 27.9818 152.096 28.4635C151.801 28.9395 151.399 29.4778 150.889 30.0785L148.05 33.453H153.651ZM162.197 28.523C163.103 28.863 163.755 29.288 164.152 29.798C164.554 30.3023 164.755 30.92 164.755 31.651C164.755 32.348 164.571 32.96 164.203 33.487C163.84 34.014 163.296 34.4248 162.571 34.7195C161.851 35.0142 160.967 35.1615 159.919 35.1615C158.275 35.1615 157.034 34.8697 156.196 34.286C155.363 33.7023 154.946 32.8892 154.946 31.8465C154.946 31.1098 155.156 30.4695 155.575 29.9255C155.994 29.3758 156.592 28.948 157.369 28.642C156.666 28.2963 156.156 27.877 155.839 27.384C155.521 26.8853 155.363 26.3017 155.363 25.633C155.363 24.9473 155.538 24.3523 155.89 23.848C156.241 23.3437 156.759 22.9527 157.445 22.675C158.131 22.3973 158.964 22.2585 159.944 22.2585C160.862 22.2585 161.65 22.386 162.307 22.641C162.97 22.896 163.474 23.2615 163.82 23.7375C164.166 24.2135 164.339 24.7802 164.339 25.4375C164.339 26.8315 163.625 27.86 162.197 28.523ZM159.902 23.6015C158.989 23.6015 158.301 23.7772 157.836 24.1285C157.377 24.4742 157.148 24.953 157.148 25.565C157.148 25.9957 157.244 26.3583 157.437 26.653C157.635 26.942 157.975 27.1998 158.457 27.4265C158.944 27.6475 159.627 27.8515 160.505 28.0385C160.618 28.0612 160.701 28.081 160.752 28.098C161.432 27.792 161.925 27.4407 162.231 27.044C162.537 26.6473 162.69 26.1685 162.69 25.6075C162.69 24.9558 162.449 24.46 161.967 24.12C161.491 23.7743 160.803 23.6015 159.902 23.6015ZM159.936 33.8185C160.939 33.8185 161.698 33.6428 162.214 33.2915C162.729 32.9402 162.987 32.433 162.987 31.77C162.987 31.345 162.885 30.9908 162.681 30.7075C162.477 30.4242 162.137 30.1777 161.661 29.968C161.185 29.7583 160.525 29.5628 159.681 29.3815C159.256 29.2908 158.927 29.2087 158.695 29.135C158.043 29.3843 157.55 29.7272 157.216 30.1635C156.887 30.5942 156.723 31.0843 156.723 31.634C156.723 32.348 156.992 32.892 157.53 33.266C158.068 33.6343 158.87 33.8185 159.936 33.8185ZM171.48 35.1615C169.962 35.1615 168.786 34.6402 167.953 33.5975C167.12 32.5548 166.703 30.9257 166.703 28.71C166.703 26.4887 167.114 24.8595 167.936 23.8225C168.763 22.7798 169.945 22.2585 171.48 22.2585C173.01 22.2585 174.189 22.7798 175.016 23.8225C175.849 24.8595 176.266 26.4887 176.266 28.71C176.266 30.9257 175.846 32.5548 175.008 33.5975C174.175 34.6402 172.999 35.1615 171.48 35.1615ZM171.489 33.5975C172.112 33.5975 172.636 33.4473 173.061 33.147C173.492 32.841 173.823 32.331 174.056 31.617C174.294 30.8973 174.413 29.934 174.413 28.727C174.413 27.5087 174.294 26.5397 174.056 25.82C173.823 25.0947 173.492 24.5818 173.061 24.2815C172.636 23.9755 172.112 23.8225 171.489 23.8225C170.86 23.8225 170.33 23.9755 169.899 24.2815C169.469 24.5818 169.137 25.089 168.905 25.803C168.672 26.517 168.556 27.4803 168.556 28.693C168.556 29.917 168.672 30.8888 168.905 31.6085C169.137 32.3282 169.466 32.841 169.891 33.147C170.321 33.4473 170.854 33.5975 171.489 33.5975ZM181.365 22.3775H182.589V35H180.719V24.6555L177.311 27.0695V25.259L181.365 22.3775Z" fill="white"/>
</svg>
