<svg viewBox="0 0 673 382" fill="none" xmlns="http://www.w3.org/2000/svg">
<g clip-path="url(#clip0_1346_437)">
<path d="M478.272 287.34L423.633 342.197C409.448 356.454 385.132 346.394 385.132 326.275V33.3951C385.132 11.1052 416.613 6.4012 423.126 27.7503L488.982 244.353C493.614 259.55 489.489 276.051 478.272 287.268V287.34Z" fill="#00293A"/>
<path d="M291.268 289.729L346.124 344.368C360.381 358.552 350.322 382.941 330.203 382.941H37.3949C15.105 382.941 10.401 351.46 31.75 344.947L248.497 279.09C263.623 274.459 280.051 278.584 291.268 289.729Z" fill="#00293A"/>
<path d="M278.458 202.595V245.873C278.603 257.162 264.998 262.807 257.037 254.846L182.062 179.871C166.285 164.095 185.246 138.476 204.931 149.042L265.794 181.536C273.61 185.661 278.458 193.839 278.458 202.668V202.595Z" fill="#00293A"/>
<path d="M563.885 276.268H520.608C509.318 276.413 503.673 262.807 511.634 254.846L586.609 179.871C602.386 164.095 628.004 183.056 617.439 202.74L584.944 263.603C580.819 271.419 572.642 276.268 563.813 276.268H563.885Z" fill="#00293A"/>
</g>
<defs>
<clipPath id="clip0_1346_437">
<rect width="673" height="382" fill="white"/>
</clipPath>
</defs>
</svg>
