<svg width="129" height="129" viewBox="0 0 129 129" fill="none" xmlns="http://www.w3.org/2000/svg">
<path d="M80.6649 47.9053L71.0936 57.5201C68.6083 60.0162 64.3448 58.2542 64.3448 54.7357V3.40434C64.3448 -0.505736 69.8646 -1.32691 71.0012 2.41459L82.5411 40.3788C83.3514 43.0381 82.6281 45.9312 80.6703 47.9053H80.6649Z" fill="#00C112"/>
<path d="M48.0084 81.1056L57.5796 71.4909C60.0703 68.9893 64.3448 70.7513 64.3448 74.2807V125.59C64.3448 129.5 58.825 130.322 57.6884 126.58L46.1431 88.5941C45.3382 85.9456 46.056 83.0634 48.0084 81.1002V81.1056Z" fill="#00C112"/>
<path d="M81.0945 80.9805L71.4797 71.4093C68.9836 68.924 70.7456 64.6604 74.2641 64.6604H125.595C129.506 64.6604 130.327 70.1802 126.585 71.3168L88.621 82.8567C85.9617 83.667 83.0686 82.9437 81.0945 80.986V80.9805Z" fill="#00C112"/>
<path d="M47.8887 48.324L57.5035 57.8953C60.0051 60.386 58.2431 64.6604 54.7137 64.6604H3.4041C-0.50598 64.6604 -1.32715 59.1407 2.41434 58.0041L40.4003 46.4587C43.0487 45.6539 45.931 46.3717 47.8942 48.324H47.8887Z" fill="#00C112"/>
<path d="M82.8837 96.1042L82.8674 88.5179C82.8674 86.5493 85.2439 85.5595 86.636 86.9517L99.7857 100.101C102.554 102.869 99.231 107.35 95.7777 105.507L85.1188 99.8185C83.7484 99.0844 82.8891 97.6596 82.8837 96.1042Z" fill="#00C112"/>
<path d="M45.6482 33.0535L45.6645 40.6398C45.6645 42.6139 43.2826 43.6037 41.8849 42.2115L28.7408 29.0673C25.9727 26.2992 29.2955 21.8182 32.7487 23.6617L43.4185 29.3555C44.7835 30.0842 45.6373 31.5036 45.6427 33.0535H45.6482Z" fill="#00C112"/>
<path d="M32.6182 83.1993L40.2045 83.183C42.1732 83.183 43.1629 85.5595 41.7707 86.9517L28.6211 100.101C25.8531 102.869 21.372 99.5466 23.2155 96.0934L28.9039 85.4344C29.6381 84.064 31.0629 83.2048 32.6182 83.1993Z" fill="#00C112"/>
<path d="M95.6744 45.9693L88.0881 45.9856C86.114 45.9856 85.1242 43.6037 86.5164 42.206L99.6606 29.0619C102.429 26.2938 106.91 29.6166 105.066 33.0698L99.3724 43.7396C98.6436 45.1046 97.2243 45.9584 95.6744 45.9638V45.9693Z" fill="#00C112"/>
</svg>
