<svg width="112" height="14" viewBox="0 0 112 14" fill="none" xmlns="http://www.w3.org/2000/svg">
<path d="M11.4376 8.2315V10.4585H9.72905V13H7.11956V10.4585H0.600055V8.9115L5.20705 0.42H7.99506L3.79605 8.2315H7.11956L7.39156 4.67H9.72905V8.2315H11.4376ZM17.7092 13.1615C16.0716 13.1615 14.7966 12.6288 13.8842 11.5635C12.9776 10.4925 12.5242 8.87467 12.5242 6.71C12.5242 4.53967 12.9747 2.92183 13.8757 1.8565C14.7824 0.791166 16.0602 0.258499 17.7092 0.258499C19.3526 0.258499 20.6276 0.791166 21.5342 1.8565C22.4466 2.92183 22.9027 4.53967 22.9027 6.71C22.9027 8.16633 22.6931 9.37333 22.2737 10.331C21.8544 11.2887 21.2566 11.9998 20.4802 12.4645C19.7096 12.9292 18.7859 13.1615 17.7092 13.1615ZM17.7177 10.8155C18.2221 10.8155 18.6471 10.688 18.9927 10.433C19.3384 10.178 19.6019 9.75017 19.7832 9.1495C19.9702 8.54317 20.0637 7.73283 20.0637 6.7185C20.0637 5.6985 19.9702 4.88533 19.7832 4.279C19.6019 3.67267 19.3384 3.242 18.9927 2.987C18.6471 2.732 18.2221 2.6045 17.7177 2.6045C17.2077 2.6045 16.7799 2.732 16.4342 2.987C16.0942 3.242 15.8307 3.67267 15.6437 4.279C15.4567 4.87967 15.3632 5.68717 15.3632 6.7015C15.3632 7.72717 15.4539 8.54317 15.6352 9.1495C15.8166 9.75017 16.0801 10.178 16.4257 10.433C16.7714 10.688 17.2021 10.8155 17.7177 10.8155ZM23.4135 0.42H32.1005V1.933L27.8165 13H24.8585L29.0235 2.732H23.4135V0.42ZM33.8627 13.1445C33.296 13.1445 32.8483 12.9972 32.5197 12.7025C32.191 12.4022 32.0267 11.997 32.0267 11.487C32.0267 10.9713 32.1882 10.5662 32.5112 10.2715C32.8342 9.97117 33.2847 9.821 33.8627 9.821C34.4293 9.821 34.8742 9.974 35.1972 10.28C35.5258 10.5803 35.6902 10.9827 35.6902 11.487C35.6902 11.9857 35.5258 12.388 35.1972 12.694C34.8685 12.9943 34.4237 13.1445 33.8627 13.1445ZM45.8327 10.688V13H37.0267V11.487L40.8262 7.0925C41.3815 6.44083 41.7725 5.89683 41.9992 5.4605C42.2258 5.02417 42.3392 4.60483 42.3392 4.2025C42.3392 3.61883 42.1493 3.19383 41.7697 2.9275C41.3957 2.66117 40.7808 2.528 39.9252 2.528C39.3982 2.528 38.8655 2.57617 38.3272 2.6725C37.7888 2.76883 37.3043 2.89633 36.8737 3.055V0.751499C37.2817 0.609833 37.7945 0.493666 38.4122 0.402999C39.0298 0.306666 39.6135 0.258499 40.1632 0.258499C41.8688 0.258499 43.1325 0.555999 43.9542 1.151C44.7815 1.74033 45.1952 2.6555 45.1952 3.8965C45.1952 4.57083 45.0478 5.22533 44.7532 5.86C44.4642 6.489 43.9683 7.19733 43.2657 7.985L40.8772 10.688H45.8327ZM52.2571 13.1615C50.6194 13.1615 49.3444 12.6288 48.4321 11.5635C47.5254 10.4925 47.0721 8.87467 47.0721 6.71C47.0721 4.53967 47.5226 2.92183 48.4236 1.8565C49.3302 0.791166 50.6081 0.258499 52.2571 0.258499C53.9004 0.258499 55.1754 0.791166 56.0821 1.8565C56.9944 2.92183 57.4506 4.53967 57.4506 6.71C57.4506 8.16633 57.2409 9.37333 56.8216 10.331C56.4022 11.2887 55.8044 11.9998 55.0281 12.4645C54.2574 12.9292 53.3337 13.1615 52.2571 13.1615ZM52.2656 10.8155C52.7699 10.8155 53.1949 10.688 53.5406 10.433C53.8862 10.178 54.1497 9.75017 54.3311 9.1495C54.5181 8.54317 54.6116 7.73283 54.6116 6.7185C54.6116 5.6985 54.5181 4.88533 54.3311 4.279C54.1497 3.67267 53.8862 3.242 53.5406 2.987C53.1949 2.732 52.7699 2.6045 52.2656 2.6045C51.7556 2.6045 51.3277 2.732 50.9821 2.987C50.6421 3.242 50.3786 3.67267 50.1916 4.279C50.0046 4.87967 49.9111 5.68717 49.9111 6.7015C49.9111 7.72717 50.0017 8.54317 50.1831 9.1495C50.3644 9.75017 50.6279 10.178 50.9736 10.433C51.3192 10.688 51.7499 10.8155 52.2656 10.8155ZM69.5596 8.2315V10.4585H67.8511V13H65.2416V10.4585H58.7221V8.9115L63.3291 0.42H66.1171L61.9181 8.2315H65.2416L65.5136 4.67H67.8511V8.2315H69.5596ZM72.3783 13.1445C71.8116 13.1445 71.364 12.9972 71.0353 12.7025C70.7066 12.4022 70.5423 11.997 70.5423 11.487C70.5423 10.9713 70.7038 10.5662 71.0268 10.2715C71.3498 9.97117 71.8003 9.821 72.3783 9.821C72.945 9.821 73.3898 9.974 73.7128 10.28C74.0415 10.5803 74.2058 10.9827 74.2058 11.487C74.2058 11.9857 74.0415 12.388 73.7128 12.694C73.3841 12.9943 72.9393 13.1445 72.3783 13.1445ZM78.2861 0.3775H80.1986V13H77.3001V3.7945L74.0616 6.098V3.3865L78.2861 0.3775ZM88.2061 6.489C89.0334 6.659 89.6709 6.99617 90.1186 7.5005C90.5719 8.00483 90.7986 8.665 90.7986 9.481C90.7986 10.6483 90.3623 11.555 89.4896 12.201C88.6169 12.8413 87.2909 13.1615 85.5116 13.1615C84.2536 13.1615 83.0664 13.0085 81.9501 12.7025V10.603C82.4771 10.7503 83.0409 10.8665 83.6416 10.9515C84.2423 11.0365 84.8174 11.079 85.3671 11.079C86.3078 11.079 86.9963 10.9317 87.4326 10.637C87.8746 10.3367 88.0956 9.89467 88.0956 9.311C88.0956 8.75 87.8888 8.32783 87.4751 8.0445C87.0671 7.76117 86.3928 7.6195 85.4521 7.6195H83.3696V5.5115H84.9591C85.8771 5.5115 86.5458 5.3755 86.9651 5.1035C87.3844 4.82583 87.5941 4.4235 87.5941 3.8965C87.5941 2.8595 86.8149 2.341 85.2566 2.341C84.7523 2.341 84.2309 2.38633 83.6926 2.477C83.1543 2.562 82.6584 2.68383 82.2051 2.8425V0.743C82.6358 0.595666 83.1543 0.4795 83.7606 0.3945C84.3726 0.303833 84.9619 0.258499 85.5286 0.258499C87.1266 0.258499 88.3308 0.553166 89.1411 1.1425C89.9571 1.73183 90.3651 2.57617 90.3651 3.6755C90.3651 4.36117 90.1724 4.95333 89.7871 5.452C89.4074 5.945 88.8804 6.29067 88.2061 6.489ZM97.9306 5.4265C98.7806 5.4265 99.523 5.56533 100.158 5.843C100.792 6.115 101.285 6.53717 101.637 7.1095C101.994 7.67617 102.172 8.38733 102.172 9.243C102.172 10.042 101.988 10.7362 101.62 11.3255C101.251 11.9148 100.719 12.3682 100.022 12.6855C99.3303 13.0028 98.5086 13.1615 97.5566 13.1615C96.497 13.1615 95.579 12.9462 94.8026 12.5155C94.0263 12.0848 93.4228 11.4218 92.9921 10.5265C92.5671 9.63117 92.3546 8.50633 92.3546 7.152C92.3546 4.88533 92.893 3.17117 93.9696 2.0095C95.052 0.842166 96.6273 0.258499 98.6956 0.258499C99.251 0.258499 99.7553 0.289666 100.209 0.352C100.668 0.414333 101.095 0.521999 101.492 0.675V2.8255C101.107 2.68383 100.687 2.57617 100.234 2.5025C99.7808 2.42883 99.3275 2.392 98.8741 2.392C97.6558 2.392 96.7406 2.70367 96.1286 3.327C95.5166 3.94467 95.1936 4.87683 95.1596 6.1235C95.5223 5.9025 95.9473 5.7325 96.4346 5.6135C96.9276 5.48883 97.4263 5.4265 97.9306 5.4265ZM97.5651 11.147C98.1771 11.147 98.6616 10.994 99.0186 10.688C99.3756 10.3763 99.5541 9.91733 99.5541 9.311C99.5541 8.682 99.3615 8.2145 98.9761 7.9085C98.5965 7.59683 98.0581 7.441 97.3611 7.441C96.9758 7.441 96.5933 7.492 96.2136 7.594C95.834 7.69033 95.4855 7.83767 95.1681 8.036C95.2191 9.16933 95.4458 9.97117 95.8481 10.4415C96.2561 10.9118 96.8285 11.147 97.5651 11.147ZM102.553 0.42H111.24V1.933L106.956 13H103.998L108.163 2.732H102.553V0.42Z" fill="white"/>
</svg>
